M48
METRIC,LZ,000.000
;FILE_FORMAT=3:3
;TYPE=PLATED
;Layer: PTH_Through
;EasyEDA v6.5.22, 2023-02-27 20:34:50
;caa8996452b24255bb9f00db4a7e08d3,da3b0543d5484e77bd98afd5aefff037,10
;Gerber Generator version 0.2
;Holesize 1 = 0.301 mm
T01C0.301
;Holesize 2 = 0.712 mm
T02C0.712
;Holesize 3 = 0.889 mm
T03C0.889
;Holesize 4 = 0.915 mm
T04C0.915
;Holesize 5 = 1.200 mm
T05C1.200
;Holesize 6 = 3.050 mm
T06C3.050
%
G05
G90
T01
X002209Y002260
X003809Y001560
X006010Y003809
X005410Y002259
X005461Y005410
X001610Y003811
X002210Y005411
X003810Y006060
X053009Y002260
X054609Y001560
X056810Y003809
X056210Y002259
X056261Y005410
X052410Y003811
X053010Y005411
X054610Y006060
X053009Y032740
X054609Y032040
X056810Y034289
X056210Y032739
X056261Y035890
X052410Y034291
X053010Y035891
X054610Y036540
X002209Y032740
X003809Y032040
X006010Y034289
X005410Y032739
X005461Y035890
X001610Y034291
X002210Y035891
X003810Y036540
T02
X019050Y013970
X019050Y011430
X019050Y024130
X019050Y026670
T03
X003810Y016510
X003810Y019050
X013970Y034290
X016510Y034290
X026670Y034290
X029210Y034290
X029210Y003810
X031750Y003810
X019050Y003810
X016510Y003810
T04
X003810Y021590
X054610Y026670
X052070Y026670
X046990Y026670
X044450Y026670
X041910Y026670
X039370Y026670
X036830Y026670
X034290Y026670
X031750Y026670
X029210Y026670
X026670Y026670
X026670Y011430
X029210Y011430
X031750Y011430
X034290Y011430
X036830Y011430
X039370Y011430
X041910Y011430
X044450Y011430
X046990Y011430
X049530Y011430
X052070Y011430
X054610Y011430
X049530Y026670
X034290Y003810
X013970Y003810
X015240Y021590
X015240Y019050
X015240Y016510
X022860Y019685
T05
X010160Y019050
X010160Y016510
X010160Y021590
T06
X003810Y003810
X054610Y003810
X054610Y034290
X003810Y034290
M30
