G04 Layer: TopSilkscreenLayer*
G04 EasyEDA v6.5.22, 2023-02-27 20:34:50*
G04 caa8996452b24255bb9f00db4a7e08d3,da3b0543d5484e77bd98afd5aefff037,10*
G04 Gerber Generator version 0.2*
G04 Scale: 100 percent, Rotated: No, Reflected: No *
G04 Dimensions in millimeters *
G04 leading zeros omitted , absolute positions ,4 integer and 5 decimal *
%FSLAX45Y45*%
%MOMM*%

%ADD10C,0.2032*%
%ADD11C,0.1524*%
%ADD12C,0.2000*%
%ADD13C,0.2007*%
%ADD14C,0.2540*%
%ADD15C,0.4000*%
%ADD16C,0.0127*%

%LPD*%
D10*
X3619500Y3148837D02*
G01*
X3619500Y3053334D01*
X3619500Y3148837D02*
G01*
X3651250Y3148837D01*
X3664965Y3144265D01*
X3674109Y3135376D01*
X3678681Y3126231D01*
X3683254Y3112515D01*
X3683254Y3089910D01*
X3678681Y3076194D01*
X3674109Y3067050D01*
X3664965Y3057905D01*
X3651250Y3053334D01*
X3619500Y3053334D01*
X3749547Y3148837D02*
G01*
X3713225Y3053334D01*
X3749547Y3148837D02*
G01*
X3785870Y3053334D01*
X3726688Y3085337D02*
G01*
X3772154Y3085337D01*
X3815841Y3148837D02*
G01*
X3815841Y3053334D01*
X3815841Y3053334D02*
G01*
X3870452Y3053334D01*
X3900424Y3148837D02*
G01*
X3900424Y3053334D01*
X3963924Y3148837D02*
G01*
X3900424Y3085337D01*
X3923029Y3107944D02*
G01*
X3963924Y3053334D01*
X4003040Y3162554D02*
G01*
X4003040Y3135376D01*
X4087622Y3135376D02*
G01*
X4078477Y3144265D01*
X4065015Y3148837D01*
X4046727Y3148837D01*
X4033011Y3144265D01*
X4024122Y3135376D01*
X4024122Y3126231D01*
X4028693Y3117087D01*
X4033011Y3112515D01*
X4042156Y3107944D01*
X4069588Y3098800D01*
X4078477Y3094481D01*
X4083050Y3089910D01*
X4087622Y3080765D01*
X4087622Y3067050D01*
X4078477Y3057905D01*
X4065015Y3053334D01*
X4046727Y3053334D01*
X4033011Y3057905D01*
X4024122Y3067050D01*
X4187697Y3148837D02*
G01*
X4210304Y3053334D01*
X4233163Y3148837D02*
G01*
X4210304Y3053334D01*
X4233163Y3148837D02*
G01*
X4255770Y3053334D01*
X4278629Y3148837D02*
G01*
X4255770Y3053334D01*
X4335779Y3148837D02*
G01*
X4326890Y3144265D01*
X4317745Y3135376D01*
X4313174Y3126231D01*
X4308602Y3112515D01*
X4308602Y3089910D01*
X4313174Y3076194D01*
X4317745Y3067050D01*
X4326890Y3057905D01*
X4335779Y3053334D01*
X4354068Y3053334D01*
X4363211Y3057905D01*
X4372102Y3067050D01*
X4376674Y3076194D01*
X4381245Y3089910D01*
X4381245Y3112515D01*
X4376674Y3126231D01*
X4372102Y3135376D01*
X4363211Y3144265D01*
X4354068Y3148837D01*
X4335779Y3148837D01*
X4411218Y3148837D02*
G01*
X4411218Y3053334D01*
X4411218Y3148837D02*
G01*
X4452111Y3148837D01*
X4465827Y3144265D01*
X4470400Y3139694D01*
X4474972Y3130804D01*
X4474972Y3121660D01*
X4470400Y3112515D01*
X4465827Y3107944D01*
X4452111Y3103371D01*
X4411218Y3103371D01*
X4443222Y3103371D02*
G01*
X4474972Y3053334D01*
X4504943Y3148837D02*
G01*
X4504943Y3053334D01*
X4568697Y3148837D02*
G01*
X4504943Y3085337D01*
X4527804Y3107944D02*
G01*
X4568697Y3053334D01*
X4662170Y3135376D02*
G01*
X4653025Y3144265D01*
X4639563Y3148837D01*
X4621275Y3148837D01*
X4607559Y3144265D01*
X4598670Y3135376D01*
X4598670Y3126231D01*
X4603241Y3117087D01*
X4607559Y3112515D01*
X4616704Y3107944D01*
X4644136Y3098800D01*
X4653025Y3094481D01*
X4657597Y3089910D01*
X4662170Y3080765D01*
X4662170Y3067050D01*
X4653025Y3057905D01*
X4639563Y3053334D01*
X4621275Y3053334D01*
X4607559Y3057905D01*
X4598670Y3067050D01*
X4692141Y3148837D02*
G01*
X4692141Y3053334D01*
X4755895Y3148837D02*
G01*
X4755895Y3053334D01*
X4692141Y3103371D02*
G01*
X4755895Y3103371D01*
X4813045Y3148837D02*
G01*
X4804156Y3144265D01*
X4795011Y3135376D01*
X4790440Y3126231D01*
X4785868Y3112515D01*
X4785868Y3089910D01*
X4790440Y3076194D01*
X4795011Y3067050D01*
X4804156Y3057905D01*
X4813045Y3053334D01*
X4831334Y3053334D01*
X4840477Y3057905D01*
X4849622Y3067050D01*
X4853940Y3076194D01*
X4858511Y3089910D01*
X4858511Y3112515D01*
X4853940Y3126231D01*
X4849622Y3135376D01*
X4840477Y3144265D01*
X4831334Y3148837D01*
X4813045Y3148837D01*
X4888484Y3148837D02*
G01*
X4888484Y3053334D01*
X4888484Y3148837D02*
G01*
X4929377Y3148837D01*
X4943093Y3144265D01*
X4947665Y3139694D01*
X4952238Y3130804D01*
X4952238Y3117087D01*
X4947665Y3107944D01*
X4943093Y3103371D01*
X4929377Y3098800D01*
X4888484Y3098800D01*
X3619500Y3529837D02*
G01*
X3619500Y3461765D01*
X3624072Y3448050D01*
X3633215Y3438905D01*
X3646677Y3434334D01*
X3655822Y3434334D01*
X3669538Y3438905D01*
X3678681Y3448050D01*
X3683254Y3461765D01*
X3683254Y3529837D01*
X3763009Y3484371D02*
G01*
X3758691Y3493515D01*
X3744975Y3498087D01*
X3731259Y3498087D01*
X3717797Y3493515D01*
X3713225Y3484371D01*
X3717797Y3475481D01*
X3726688Y3470910D01*
X3749547Y3466337D01*
X3758691Y3461765D01*
X3763009Y3452621D01*
X3763009Y3448050D01*
X3758691Y3438905D01*
X3744975Y3434334D01*
X3731259Y3434334D01*
X3717797Y3438905D01*
X3713225Y3448050D01*
X3793236Y3470910D02*
G01*
X3847591Y3470910D01*
X3847591Y3479800D01*
X3843020Y3488944D01*
X3838702Y3493515D01*
X3829558Y3498087D01*
X3815841Y3498087D01*
X3806697Y3493515D01*
X3797808Y3484371D01*
X3793236Y3470910D01*
X3793236Y3461765D01*
X3797808Y3448050D01*
X3806697Y3438905D01*
X3815841Y3434334D01*
X3829558Y3434334D01*
X3838702Y3438905D01*
X3847591Y3448050D01*
X3877563Y3529837D02*
G01*
X3877563Y3434334D01*
X3907790Y3470910D02*
G01*
X3962145Y3470910D01*
X3962145Y3479800D01*
X3957574Y3488944D01*
X3953256Y3493515D01*
X3944111Y3498087D01*
X3930395Y3498087D01*
X3921252Y3493515D01*
X3912108Y3484371D01*
X3907790Y3470910D01*
X3907790Y3461765D01*
X3912108Y3448050D01*
X3921252Y3438905D01*
X3930395Y3434334D01*
X3944111Y3434334D01*
X3953256Y3438905D01*
X3962145Y3448050D01*
X4042156Y3484371D02*
G01*
X4037584Y3493515D01*
X4024122Y3498087D01*
X4010406Y3498087D01*
X3996690Y3493515D01*
X3992118Y3484371D01*
X3996690Y3475481D01*
X4005834Y3470910D01*
X4028693Y3466337D01*
X4037584Y3461765D01*
X4042156Y3452621D01*
X4042156Y3448050D01*
X4037584Y3438905D01*
X4024122Y3434334D01*
X4010406Y3434334D01*
X3996690Y3438905D01*
X3992118Y3448050D01*
X4122165Y3484371D02*
G01*
X4117593Y3493515D01*
X4104131Y3498087D01*
X4090415Y3498087D01*
X4076700Y3493515D01*
X4072127Y3484371D01*
X4076700Y3475481D01*
X4085843Y3470910D01*
X4108704Y3466337D01*
X4117593Y3461765D01*
X4122165Y3452621D01*
X4122165Y3448050D01*
X4117593Y3438905D01*
X4104131Y3434334D01*
X4090415Y3434334D01*
X4076700Y3438905D01*
X4072127Y3448050D01*
X4222241Y3529837D02*
G01*
X4222241Y3434334D01*
X4222241Y3529837D02*
G01*
X4263136Y3529837D01*
X4276852Y3525265D01*
X4281424Y3520694D01*
X4285741Y3511804D01*
X4285741Y3502660D01*
X4281424Y3493515D01*
X4276852Y3488944D01*
X4263136Y3484371D01*
X4222241Y3484371D02*
G01*
X4263136Y3484371D01*
X4276852Y3479800D01*
X4281424Y3475481D01*
X4285741Y3466337D01*
X4285741Y3452621D01*
X4281424Y3443478D01*
X4276852Y3438905D01*
X4263136Y3434334D01*
X4222241Y3434334D01*
X4338574Y3498087D02*
G01*
X4329429Y3493515D01*
X4320286Y3484371D01*
X4315968Y3470910D01*
X4315968Y3461765D01*
X4320286Y3448050D01*
X4329429Y3438905D01*
X4338574Y3434334D01*
X4352290Y3434334D01*
X4361434Y3438905D01*
X4370324Y3448050D01*
X4374895Y3461765D01*
X4374895Y3470910D01*
X4370324Y3484371D01*
X4361434Y3493515D01*
X4352290Y3498087D01*
X4338574Y3498087D01*
X4404868Y3498087D02*
G01*
X4454906Y3434334D01*
X4454906Y3498087D02*
G01*
X4404868Y3434334D01*
X3687572Y3316731D02*
G01*
X3683254Y3325876D01*
X3674109Y3334765D01*
X3664965Y3339337D01*
X3646677Y3339337D01*
X3637788Y3334765D01*
X3628643Y3325876D01*
X3624072Y3316731D01*
X3619500Y3303015D01*
X3619500Y3280410D01*
X3624072Y3266694D01*
X3628643Y3257550D01*
X3637788Y3248405D01*
X3646677Y3243834D01*
X3664965Y3243834D01*
X3674109Y3248405D01*
X3683254Y3257550D01*
X3687572Y3266694D01*
X3740404Y3307587D02*
G01*
X3731259Y3303015D01*
X3722115Y3293871D01*
X3717797Y3280410D01*
X3717797Y3271265D01*
X3722115Y3257550D01*
X3731259Y3248405D01*
X3740404Y3243834D01*
X3754120Y3243834D01*
X3763009Y3248405D01*
X3772154Y3257550D01*
X3776725Y3271265D01*
X3776725Y3280410D01*
X3772154Y3293871D01*
X3763009Y3303015D01*
X3754120Y3307587D01*
X3740404Y3307587D01*
X3806697Y3307587D02*
G01*
X3806697Y3243834D01*
X3806697Y3289300D02*
G01*
X3820413Y3303015D01*
X3829558Y3307587D01*
X3843020Y3307587D01*
X3852163Y3303015D01*
X3856736Y3289300D01*
X3856736Y3243834D01*
X3900424Y3339337D02*
G01*
X3900424Y3262121D01*
X3904995Y3248405D01*
X3914140Y3243834D01*
X3923029Y3243834D01*
X3886708Y3307587D02*
G01*
X3918711Y3307587D01*
X3953256Y3307587D02*
G01*
X3953256Y3243834D01*
X3953256Y3280410D02*
G01*
X3957574Y3293871D01*
X3966718Y3303015D01*
X3975861Y3307587D01*
X3989577Y3307587D01*
X4042156Y3307587D02*
G01*
X4033011Y3303015D01*
X4024122Y3293871D01*
X4019550Y3280410D01*
X4019550Y3271265D01*
X4024122Y3257550D01*
X4033011Y3248405D01*
X4042156Y3243834D01*
X4055872Y3243834D01*
X4065015Y3248405D01*
X4074159Y3257550D01*
X4078477Y3271265D01*
X4078477Y3280410D01*
X4074159Y3293871D01*
X4065015Y3303015D01*
X4055872Y3307587D01*
X4042156Y3307587D01*
X4108704Y3339337D02*
G01*
X4108704Y3243834D01*
X4208525Y3339337D02*
G01*
X4208525Y3243834D01*
X4208525Y3339337D02*
G01*
X4249420Y3339337D01*
X4263136Y3334765D01*
X4267708Y3330194D01*
X4272279Y3321304D01*
X4272279Y3312160D01*
X4267708Y3303015D01*
X4263136Y3298444D01*
X4249420Y3293871D01*
X4208525Y3293871D02*
G01*
X4249420Y3293871D01*
X4263136Y3289300D01*
X4267708Y3284981D01*
X4272279Y3275837D01*
X4272279Y3262121D01*
X4267708Y3252978D01*
X4263136Y3248405D01*
X4249420Y3243834D01*
X4208525Y3243834D01*
X4324858Y3307587D02*
G01*
X4315968Y3303015D01*
X4306824Y3293871D01*
X4302252Y3280410D01*
X4302252Y3271265D01*
X4306824Y3257550D01*
X4315968Y3248405D01*
X4324858Y3243834D01*
X4338574Y3243834D01*
X4347718Y3248405D01*
X4356861Y3257550D01*
X4361434Y3271265D01*
X4361434Y3280410D01*
X4356861Y3293871D01*
X4347718Y3303015D01*
X4338574Y3307587D01*
X4324858Y3307587D01*
X4445761Y3307587D02*
G01*
X4445761Y3243834D01*
X4445761Y3293871D02*
G01*
X4436872Y3303015D01*
X4427727Y3307587D01*
X4414011Y3307587D01*
X4404868Y3303015D01*
X4395977Y3293871D01*
X4391406Y3280410D01*
X4391406Y3271265D01*
X4395977Y3257550D01*
X4404868Y3248405D01*
X4414011Y3243834D01*
X4427727Y3243834D01*
X4436872Y3248405D01*
X4445761Y3257550D01*
X4475988Y3307587D02*
G01*
X4475988Y3243834D01*
X4475988Y3280410D02*
G01*
X4480306Y3293871D01*
X4489450Y3303015D01*
X4498593Y3307587D01*
X4512309Y3307587D01*
X4596891Y3339337D02*
G01*
X4596891Y3243834D01*
X4596891Y3293871D02*
G01*
X4587747Y3303015D01*
X4578604Y3307587D01*
X4564888Y3307587D01*
X4555743Y3303015D01*
X4546854Y3293871D01*
X4542281Y3280410D01*
X4542281Y3271265D01*
X4546854Y3257550D01*
X4555743Y3248405D01*
X4564888Y3243834D01*
X4578604Y3243834D01*
X4587747Y3248405D01*
X4596891Y3257550D01*
X4696713Y3307587D02*
G01*
X4724145Y3243834D01*
X4751324Y3307587D02*
G01*
X4724145Y3243834D01*
X4781295Y3321304D02*
G01*
X4790440Y3325876D01*
X4804156Y3339337D01*
X4804156Y3243834D01*
X4838700Y3266694D02*
G01*
X4834127Y3262121D01*
X4838700Y3257550D01*
X4843018Y3262121D01*
X4838700Y3266694D01*
X4900422Y3339337D02*
G01*
X4886706Y3334765D01*
X4877561Y3321304D01*
X4873243Y3298444D01*
X4873243Y3284981D01*
X4877561Y3262121D01*
X4886706Y3248405D01*
X4900422Y3243834D01*
X4909565Y3243834D01*
X4923027Y3248405D01*
X4932172Y3262121D01*
X4936743Y3284981D01*
X4936743Y3298444D01*
X4932172Y3321304D01*
X4923027Y3334765D01*
X4909565Y3339337D01*
X4900422Y3339337D01*
X1486661Y2286000D02*
G01*
X1582165Y2322321D01*
X1486661Y2358644D02*
G01*
X1582165Y2322321D01*
X1486661Y2388615D02*
G01*
X1582165Y2388615D01*
X1486661Y2418842D02*
G01*
X1582165Y2418842D01*
X1486661Y2418842D02*
G01*
X1582165Y2482342D01*
X1486661Y2482342D02*
G01*
X1582165Y2482342D01*
X1719072Y1919731D02*
G01*
X1714754Y1928876D01*
X1705609Y1937765D01*
X1696465Y1942337D01*
X1678177Y1942337D01*
X1669288Y1937765D01*
X1660143Y1928876D01*
X1655572Y1919731D01*
X1651000Y1906015D01*
X1651000Y1883410D01*
X1655572Y1869694D01*
X1660143Y1860550D01*
X1669288Y1851405D01*
X1678177Y1846834D01*
X1696465Y1846834D01*
X1705609Y1851405D01*
X1714754Y1860550D01*
X1719072Y1869694D01*
X1719072Y1883410D01*
X1696465Y1883410D02*
G01*
X1719072Y1883410D01*
X1749297Y1942337D02*
G01*
X1749297Y1846834D01*
X1749297Y1942337D02*
G01*
X1812797Y1846834D01*
X1812797Y1942337D02*
G01*
X1812797Y1846834D01*
X1842770Y1942337D02*
G01*
X1842770Y1846834D01*
X1842770Y1942337D02*
G01*
X1874520Y1942337D01*
X1888236Y1937765D01*
X1897379Y1928876D01*
X1901952Y1919731D01*
X1906524Y1906015D01*
X1906524Y1883410D01*
X1901952Y1869694D01*
X1897379Y1860550D01*
X1888236Y1851405D01*
X1874520Y1846834D01*
X1842770Y1846834D01*
X1486715Y1388163D02*
G01*
X1486715Y1342697D01*
X1527609Y1338125D01*
X1523037Y1342697D01*
X1518465Y1356159D01*
X1518465Y1369875D01*
X1523037Y1383591D01*
X1531927Y1392481D01*
X1545643Y1397053D01*
X1554787Y1397053D01*
X1568503Y1392481D01*
X1577393Y1383591D01*
X1581965Y1369875D01*
X1581965Y1356159D01*
X1577393Y1342697D01*
X1573075Y1338125D01*
X1563931Y1333553D01*
X1486715Y1427025D02*
G01*
X1581965Y1463601D01*
X1486715Y1499923D02*
G01*
X1581965Y1463601D01*
X2248661Y2159000D02*
G01*
X2344165Y2159000D01*
X2248661Y2159000D02*
G01*
X2248661Y2199894D01*
X2253234Y2213610D01*
X2257806Y2218181D01*
X2266695Y2222754D01*
X2280411Y2222754D01*
X2289556Y2218181D01*
X2294127Y2213610D01*
X2298700Y2199894D01*
X2298700Y2159000D01*
X2248661Y2252726D02*
G01*
X2344165Y2275331D01*
X2248661Y2298192D02*
G01*
X2344165Y2275331D01*
X2248661Y2298192D02*
G01*
X2344165Y2320797D01*
X2248661Y2343657D02*
G01*
X2344165Y2320797D01*
X2248661Y2373629D02*
G01*
X2344165Y2373629D01*
X2248661Y2373629D02*
G01*
X2344165Y2409952D01*
X2248661Y2446273D02*
G01*
X2344165Y2409952D01*
X2248661Y2446273D02*
G01*
X2344165Y2446273D01*
X1651000Y809497D02*
G01*
X1651000Y704595D01*
X1651000Y809497D02*
G01*
X1695958Y809497D01*
X1710943Y804418D01*
X1716024Y799592D01*
X1721104Y789431D01*
X1721104Y774445D01*
X1716024Y764539D01*
X1710943Y759460D01*
X1695958Y754379D01*
X1651000Y754379D01*
X1754124Y809497D02*
G01*
X1779015Y704595D01*
X1803908Y809497D02*
G01*
X1779015Y704595D01*
X1803908Y809497D02*
G01*
X1829054Y704595D01*
X1853945Y809497D02*
G01*
X1829054Y704595D01*
X1886965Y809497D02*
G01*
X1886965Y704595D01*
X1886965Y809497D02*
G01*
X1931924Y809497D01*
X1946909Y804418D01*
X1951990Y799592D01*
X1957070Y789431D01*
X1957070Y779526D01*
X1951990Y769620D01*
X1946909Y764539D01*
X1931924Y759460D01*
X1886965Y759460D01*
X1922018Y759460D02*
G01*
X1957070Y704595D01*
X2067052Y809497D02*
G01*
X2067052Y704595D01*
X2100072Y809497D02*
G01*
X2100072Y704595D01*
X2100072Y809497D02*
G01*
X2169922Y704595D01*
X2169922Y809497D02*
G01*
X2169922Y704595D01*
X3175561Y800554D02*
G01*
X3165401Y810460D01*
X3150415Y815540D01*
X3130349Y815540D01*
X3115363Y810460D01*
X3105457Y800554D01*
X3105457Y790648D01*
X3110537Y780488D01*
X3115363Y775662D01*
X3125523Y770582D01*
X3155495Y760422D01*
X3165401Y755596D01*
X3170481Y750516D01*
X3175561Y740610D01*
X3175561Y725624D01*
X3165401Y715464D01*
X3150415Y710638D01*
X3130349Y710638D01*
X3115363Y715464D01*
X3105457Y725624D01*
X3208581Y815540D02*
G01*
X3208581Y710638D01*
X3208581Y815540D02*
G01*
X3273351Y815540D01*
X3208581Y765502D02*
G01*
X3248459Y765502D01*
X3208581Y710638D02*
G01*
X3273351Y710638D01*
X3306371Y815540D02*
G01*
X3306371Y710638D01*
X3306371Y815540D02*
G01*
X3351583Y815540D01*
X3366569Y810460D01*
X3371395Y805634D01*
X3376475Y795474D01*
X3376475Y785568D01*
X3371395Y775662D01*
X3366569Y770582D01*
X3351583Y765502D01*
X3306371Y765502D01*
X3341423Y765502D02*
G01*
X3376475Y710638D01*
X3409495Y815540D02*
G01*
X3449373Y710638D01*
X3489505Y815540D02*
G01*
X3449373Y710638D01*
X3552497Y815540D02*
G01*
X3542337Y810460D01*
X3532431Y800554D01*
X3527351Y790648D01*
X3522525Y775662D01*
X3522525Y750516D01*
X3527351Y735530D01*
X3532431Y725624D01*
X3542337Y715464D01*
X3552497Y710638D01*
X3572563Y710638D01*
X3582469Y715464D01*
X3592375Y725624D01*
X3597455Y735530D01*
X3602535Y750516D01*
X3602535Y775662D01*
X3597455Y790648D01*
X3592375Y800554D01*
X3582469Y810460D01*
X3572563Y815540D01*
X3552497Y815540D01*
X1333500Y3158997D02*
G01*
X1333500Y3054095D01*
X1333500Y3158997D02*
G01*
X1378458Y3158997D01*
X1393443Y3153918D01*
X1398524Y3149092D01*
X1403604Y3138931D01*
X1403604Y3123945D01*
X1398524Y3114039D01*
X1393443Y3108960D01*
X1378458Y3103879D01*
X1333500Y3103879D01*
X1436624Y3158997D02*
G01*
X1461515Y3054095D01*
X1486408Y3158997D02*
G01*
X1461515Y3054095D01*
X1486408Y3158997D02*
G01*
X1511554Y3054095D01*
X1536445Y3158997D02*
G01*
X1511554Y3054095D01*
X1569465Y3158997D02*
G01*
X1569465Y3054095D01*
X1569465Y3158997D02*
G01*
X1614424Y3158997D01*
X1629409Y3153918D01*
X1634490Y3149092D01*
X1639570Y3138931D01*
X1639570Y3129026D01*
X1634490Y3119120D01*
X1629409Y3114039D01*
X1614424Y3108960D01*
X1569465Y3108960D01*
X1604518Y3108960D02*
G01*
X1639570Y3054095D01*
X2765552Y3159023D02*
G01*
X2765552Y3054121D01*
X2730500Y3159023D02*
G01*
X2800604Y3159023D01*
X2863595Y3159023D02*
G01*
X2853436Y3153943D01*
X2843529Y3144037D01*
X2838450Y3133877D01*
X2833624Y3118891D01*
X2833624Y3093999D01*
X2838450Y3079013D01*
X2843529Y3069107D01*
X2853436Y3058947D01*
X2863595Y3054121D01*
X2883408Y3054121D01*
X2893568Y3058947D01*
X2903474Y3069107D01*
X2908554Y3079013D01*
X2913379Y3093999D01*
X2913379Y3118891D01*
X2908554Y3133877D01*
X2903474Y3144037D01*
X2893568Y3153943D01*
X2883408Y3159023D01*
X2863595Y3159023D01*
X3021584Y3133877D02*
G01*
X3016504Y3144037D01*
X3006597Y3153943D01*
X2996438Y3159023D01*
X2976625Y3159023D01*
X2966465Y3153943D01*
X2956559Y3144037D01*
X2951479Y3133877D01*
X2946400Y3118891D01*
X2946400Y3093999D01*
X2951479Y3079013D01*
X2956559Y3069107D01*
X2966465Y3058947D01*
X2976625Y3054121D01*
X2996438Y3054121D01*
X3006597Y3058947D01*
X3016504Y3069107D01*
X3021584Y3079013D01*
X3021584Y3093999D01*
X2996438Y3093999D02*
G01*
X3021584Y3093999D01*
X3129534Y3133877D02*
G01*
X3124454Y3144037D01*
X3114547Y3153943D01*
X3104388Y3159023D01*
X3084575Y3159023D01*
X3074415Y3153943D01*
X3064509Y3144037D01*
X3059429Y3133877D01*
X3054604Y3118891D01*
X3054604Y3093999D01*
X3059429Y3079013D01*
X3064509Y3069107D01*
X3074415Y3058947D01*
X3084575Y3054121D01*
X3104388Y3054121D01*
X3114547Y3058947D01*
X3124454Y3069107D01*
X3129534Y3079013D01*
X3129534Y3093999D01*
X3104388Y3093999D02*
G01*
X3129534Y3093999D01*
X3162554Y3159023D02*
G01*
X3162554Y3054121D01*
X3162554Y3054121D02*
G01*
X3222497Y3054121D01*
X3255518Y3159023D02*
G01*
X3255518Y3054121D01*
X3255518Y3159023D02*
G01*
X3320541Y3159023D01*
X3255518Y3108985D02*
G01*
X3295395Y3108985D01*
X3255518Y3054121D02*
G01*
X3320541Y3054121D01*
D11*
X1919477Y1676907D02*
G01*
X1914143Y1687321D01*
X1903729Y1697736D01*
X1893570Y1702815D01*
X1872741Y1702815D01*
X1862327Y1697736D01*
X1851913Y1687321D01*
X1846579Y1676907D01*
X1841500Y1661160D01*
X1841500Y1635252D01*
X1846579Y1619757D01*
X1851913Y1609344D01*
X1862327Y1598929D01*
X1872741Y1593850D01*
X1893570Y1593850D01*
X1903729Y1598929D01*
X1914143Y1609344D01*
X1919477Y1619757D01*
X1953768Y1681987D02*
G01*
X1964181Y1687321D01*
X1979675Y1702815D01*
X1979675Y1593850D01*
X1919477Y2946907D02*
G01*
X1914143Y2957321D01*
X1903729Y2967736D01*
X1893570Y2972815D01*
X1872741Y2972815D01*
X1862327Y2967736D01*
X1851913Y2957321D01*
X1846579Y2946907D01*
X1841500Y2931160D01*
X1841500Y2905252D01*
X1846579Y2889757D01*
X1851913Y2879344D01*
X1862327Y2868929D01*
X1872741Y2863850D01*
X1893570Y2863850D01*
X1903729Y2868929D01*
X1914143Y2879344D01*
X1919477Y2889757D01*
X1958847Y2946907D02*
G01*
X1958847Y2951987D01*
X1964181Y2962402D01*
X1969261Y2967736D01*
X1979675Y2972815D01*
X2000504Y2972815D01*
X2010918Y2967736D01*
X2015997Y2962402D01*
X2021331Y2951987D01*
X2021331Y2941573D01*
X2015997Y2931160D01*
X2005584Y2915665D01*
X1953768Y2863850D01*
X2026411Y2863850D01*
X6211315Y1905000D02*
G01*
X6133338Y1905000D01*
X6117843Y1899920D01*
X6107429Y1889505D01*
X6102350Y1873757D01*
X6102350Y1863344D01*
X6107429Y1847850D01*
X6117843Y1837436D01*
X6133338Y1832355D01*
X6211315Y1832355D01*
X6190488Y1798065D02*
G01*
X6195822Y1787652D01*
X6211315Y1771904D01*
X6102350Y1771904D01*
X5504941Y2526792D02*
G01*
X5427218Y2526792D01*
X5504941Y2552700D02*
G01*
X5504941Y2500884D01*
X5504941Y2476500D02*
G01*
X5427218Y2424937D01*
X5504941Y2424937D02*
G01*
X5427218Y2476500D01*
X5250941Y2552700D02*
G01*
X5173218Y2552700D01*
X5250941Y2552700D02*
G01*
X5250941Y2519426D01*
X5247131Y2508250D01*
X5243575Y2504694D01*
X5236209Y2500884D01*
X5228843Y2500884D01*
X5221477Y2504694D01*
X5217668Y2508250D01*
X5213858Y2519426D01*
X5213858Y2552700D01*
X5213858Y2526792D02*
G01*
X5173218Y2500884D01*
X5250941Y2476500D02*
G01*
X5173218Y2424937D01*
X5250941Y2424937D02*
G01*
X5173218Y2476500D01*
X4724400Y2497328D02*
G01*
X4731765Y2500884D01*
X4739131Y2508250D01*
X4742941Y2515870D01*
X4742941Y2530602D01*
X4739131Y2537968D01*
X4731765Y2545334D01*
X4724400Y2548889D01*
X4713477Y2552700D01*
X4694936Y2552700D01*
X4683759Y2548889D01*
X4676393Y2545334D01*
X4669027Y2537968D01*
X4665218Y2530602D01*
X4665218Y2515870D01*
X4669027Y2508250D01*
X4676393Y2500884D01*
X4683759Y2497328D01*
X4694936Y2497328D01*
X4694936Y2515870D02*
G01*
X4694936Y2497328D01*
X4742941Y2472944D02*
G01*
X4665218Y2472944D01*
X4742941Y2472944D02*
G01*
X4665218Y2421128D01*
X4742941Y2421128D02*
G01*
X4665218Y2421128D01*
X4742941Y2396744D02*
G01*
X4665218Y2396744D01*
X4742941Y2396744D02*
G01*
X4742941Y2370836D01*
X4739131Y2359913D01*
X4731765Y2352547D01*
X4724400Y2348737D01*
X4713477Y2345181D01*
X4694936Y2345181D01*
X4683759Y2348737D01*
X4676393Y2352547D01*
X4669027Y2359913D01*
X4665218Y2370836D01*
X4665218Y2396744D01*
X5232400Y1405128D02*
G01*
X5239765Y1408684D01*
X5247131Y1416050D01*
X5250941Y1423670D01*
X5250941Y1438402D01*
X5247131Y1445768D01*
X5239765Y1453134D01*
X5232400Y1456689D01*
X5221477Y1460500D01*
X5202936Y1460500D01*
X5191759Y1456689D01*
X5184393Y1453134D01*
X5177027Y1445768D01*
X5173218Y1438402D01*
X5173218Y1423670D01*
X5177027Y1416050D01*
X5184393Y1408684D01*
X5191759Y1405128D01*
X5202936Y1405128D01*
X5202936Y1423670D02*
G01*
X5202936Y1405128D01*
X5250941Y1380744D02*
G01*
X5173218Y1380744D01*
X5250941Y1380744D02*
G01*
X5173218Y1328928D01*
X5250941Y1328928D02*
G01*
X5173218Y1328928D01*
X5250941Y1304544D02*
G01*
X5173218Y1304544D01*
X5250941Y1304544D02*
G01*
X5250941Y1278636D01*
X5247131Y1267713D01*
X5239765Y1260347D01*
X5232400Y1256537D01*
X5221477Y1252981D01*
X5202936Y1252981D01*
X5191759Y1256537D01*
X5184393Y1260347D01*
X5177027Y1267713D01*
X5173218Y1278636D01*
X5173218Y1304544D01*
X5504941Y1473200D02*
G01*
X5427218Y1473200D01*
X5504941Y1473200D02*
G01*
X5504941Y1439926D01*
X5501131Y1428750D01*
X5497575Y1425194D01*
X5490209Y1421384D01*
X5482843Y1421384D01*
X5475477Y1425194D01*
X5471668Y1428750D01*
X5467858Y1439926D01*
X5467858Y1473200D01*
X5467858Y1447292D02*
G01*
X5427218Y1421384D01*
X5504941Y1367536D02*
G01*
X5427218Y1397000D01*
X5504941Y1367536D02*
G01*
X5427218Y1338071D01*
X5453125Y1386078D02*
G01*
X5453125Y1348994D01*
X5504941Y1313687D02*
G01*
X5427218Y1295145D01*
X5504941Y1276604D02*
G01*
X5427218Y1295145D01*
X5504941Y1276604D02*
G01*
X5427218Y1258062D01*
X5504941Y1239773D02*
G01*
X5427218Y1258062D01*
X4488941Y2552700D02*
G01*
X4411218Y2552700D01*
X4488941Y2552700D02*
G01*
X4488941Y2526792D01*
X4485131Y2515870D01*
X4477765Y2508250D01*
X4470400Y2504694D01*
X4459477Y2500884D01*
X4440936Y2500884D01*
X4429759Y2504694D01*
X4422393Y2508250D01*
X4415027Y2515870D01*
X4411218Y2526792D01*
X4411218Y2552700D01*
X4470400Y2472944D02*
G01*
X4474209Y2472944D01*
X4481575Y2469134D01*
X4485131Y2465578D01*
X4488941Y2458212D01*
X4488941Y2443226D01*
X4485131Y2435860D01*
X4481575Y2432304D01*
X4474209Y2428494D01*
X4466843Y2428494D01*
X4459477Y2432304D01*
X4448302Y2439670D01*
X4411218Y2476500D01*
X4411218Y2424937D01*
X4234941Y2552700D02*
G01*
X4157218Y2552700D01*
X4234941Y2552700D02*
G01*
X4234941Y2526792D01*
X4231131Y2515870D01*
X4223765Y2508250D01*
X4216400Y2504694D01*
X4205477Y2500884D01*
X4186936Y2500884D01*
X4175759Y2504694D01*
X4168393Y2508250D01*
X4161027Y2515870D01*
X4157218Y2526792D01*
X4157218Y2552700D01*
X4234941Y2469134D02*
G01*
X4234941Y2428494D01*
X4205477Y2450845D01*
X4205477Y2439670D01*
X4201668Y2432304D01*
X4197858Y2428494D01*
X4186936Y2424937D01*
X4179570Y2424937D01*
X4168393Y2428494D01*
X4161027Y2435860D01*
X4157218Y2447036D01*
X4157218Y2458212D01*
X4161027Y2469134D01*
X4164838Y2472944D01*
X4172204Y2476500D01*
X3980941Y2552700D02*
G01*
X3903218Y2552700D01*
X3980941Y2552700D02*
G01*
X3980941Y2526792D01*
X3977131Y2515870D01*
X3969765Y2508250D01*
X3962400Y2504694D01*
X3951477Y2500884D01*
X3932936Y2500884D01*
X3921759Y2504694D01*
X3914393Y2508250D01*
X3907027Y2515870D01*
X3903218Y2526792D01*
X3903218Y2552700D01*
X3980941Y2439670D02*
G01*
X3929125Y2476500D01*
X3929125Y2421128D01*
X3980941Y2439670D02*
G01*
X3903218Y2439670D01*
X3726941Y2552700D02*
G01*
X3649218Y2552700D01*
X3726941Y2552700D02*
G01*
X3726941Y2526792D01*
X3723131Y2515870D01*
X3715765Y2508250D01*
X3708400Y2504694D01*
X3697477Y2500884D01*
X3678936Y2500884D01*
X3667759Y2504694D01*
X3660393Y2508250D01*
X3653027Y2515870D01*
X3649218Y2526792D01*
X3649218Y2552700D01*
X3726941Y2432304D02*
G01*
X3726941Y2469134D01*
X3693668Y2472944D01*
X3697477Y2469134D01*
X3701034Y2458212D01*
X3701034Y2447036D01*
X3697477Y2435860D01*
X3689858Y2428494D01*
X3678936Y2424937D01*
X3671570Y2424937D01*
X3660393Y2428494D01*
X3653027Y2435860D01*
X3649218Y2447036D01*
X3649218Y2458212D01*
X3653027Y2469134D01*
X3656838Y2472944D01*
X3664204Y2476500D01*
X3472941Y2552700D02*
G01*
X3395218Y2552700D01*
X3472941Y2552700D02*
G01*
X3472941Y2526792D01*
X3469131Y2515870D01*
X3461765Y2508250D01*
X3454400Y2504694D01*
X3443477Y2500884D01*
X3424936Y2500884D01*
X3413759Y2504694D01*
X3406393Y2508250D01*
X3399027Y2515870D01*
X3395218Y2526792D01*
X3395218Y2552700D01*
X3461765Y2432304D02*
G01*
X3469131Y2435860D01*
X3472941Y2447036D01*
X3472941Y2454402D01*
X3469131Y2465578D01*
X3458209Y2472944D01*
X3439668Y2476500D01*
X3421125Y2476500D01*
X3406393Y2472944D01*
X3399027Y2465578D01*
X3395218Y2454402D01*
X3395218Y2450845D01*
X3399027Y2439670D01*
X3406393Y2432304D01*
X3417570Y2428494D01*
X3421125Y2428494D01*
X3432302Y2432304D01*
X3439668Y2439670D01*
X3443477Y2450845D01*
X3443477Y2454402D01*
X3439668Y2465578D01*
X3432302Y2472944D01*
X3421125Y2476500D01*
X3218941Y2552700D02*
G01*
X3141218Y2552700D01*
X3218941Y2552700D02*
G01*
X3218941Y2526792D01*
X3215131Y2515870D01*
X3207765Y2508250D01*
X3200400Y2504694D01*
X3189477Y2500884D01*
X3170936Y2500884D01*
X3159759Y2504694D01*
X3152393Y2508250D01*
X3145027Y2515870D01*
X3141218Y2526792D01*
X3141218Y2552700D01*
X3218941Y2424937D02*
G01*
X3141218Y2461768D01*
X3218941Y2476500D02*
G01*
X3218941Y2424937D01*
X2964941Y2552700D02*
G01*
X2887218Y2552700D01*
X2964941Y2552700D02*
G01*
X2964941Y2526792D01*
X2961131Y2515870D01*
X2953765Y2508250D01*
X2946400Y2504694D01*
X2935477Y2500884D01*
X2916936Y2500884D01*
X2905759Y2504694D01*
X2898393Y2508250D01*
X2891027Y2515870D01*
X2887218Y2526792D01*
X2887218Y2552700D01*
X2964941Y2458212D02*
G01*
X2961131Y2469134D01*
X2953765Y2472944D01*
X2946400Y2472944D01*
X2939034Y2469134D01*
X2935477Y2461768D01*
X2931668Y2447036D01*
X2927858Y2435860D01*
X2920491Y2428494D01*
X2913125Y2424937D01*
X2902204Y2424937D01*
X2894838Y2428494D01*
X2891027Y2432304D01*
X2887218Y2443226D01*
X2887218Y2458212D01*
X2891027Y2469134D01*
X2894838Y2472944D01*
X2902204Y2476500D01*
X2913125Y2476500D01*
X2920491Y2472944D01*
X2927858Y2465578D01*
X2931668Y2454402D01*
X2935477Y2439670D01*
X2939034Y2432304D01*
X2946400Y2428494D01*
X2953765Y2428494D01*
X2961131Y2432304D01*
X2964941Y2443226D01*
X2964941Y2458212D01*
X2710941Y2552700D02*
G01*
X2633218Y2552700D01*
X2710941Y2552700D02*
G01*
X2710941Y2526792D01*
X2707131Y2515870D01*
X2699765Y2508250D01*
X2692400Y2504694D01*
X2681477Y2500884D01*
X2662936Y2500884D01*
X2651759Y2504694D01*
X2644393Y2508250D01*
X2637027Y2515870D01*
X2633218Y2526792D01*
X2633218Y2552700D01*
X2685034Y2428494D02*
G01*
X2673858Y2432304D01*
X2666491Y2439670D01*
X2662936Y2450845D01*
X2662936Y2454402D01*
X2666491Y2465578D01*
X2673858Y2472944D01*
X2685034Y2476500D01*
X2688843Y2476500D01*
X2699765Y2472944D01*
X2707131Y2465578D01*
X2710941Y2454402D01*
X2710941Y2450845D01*
X2707131Y2439670D01*
X2699765Y2432304D01*
X2685034Y2428494D01*
X2666491Y2428494D01*
X2648204Y2432304D01*
X2637027Y2439670D01*
X2633218Y2450845D01*
X2633218Y2458212D01*
X2637027Y2469134D01*
X2644393Y2472944D01*
X4996941Y1447800D02*
G01*
X4919218Y1447800D01*
X4996941Y1447800D02*
G01*
X4996941Y1414526D01*
X4993131Y1403350D01*
X4989575Y1399794D01*
X4982209Y1395984D01*
X4974843Y1395984D01*
X4967477Y1399794D01*
X4963668Y1403350D01*
X4959858Y1414526D01*
X4959858Y1447800D01*
X4959858Y1421892D02*
G01*
X4919218Y1395984D01*
X4985765Y1320037D02*
G01*
X4993131Y1327404D01*
X4996941Y1338326D01*
X4996941Y1353312D01*
X4993131Y1364234D01*
X4985765Y1371600D01*
X4978400Y1371600D01*
X4971034Y1368044D01*
X4967477Y1364234D01*
X4963668Y1356868D01*
X4956302Y1334770D01*
X4952491Y1327404D01*
X4948936Y1323594D01*
X4941570Y1320037D01*
X4930393Y1320037D01*
X4923027Y1327404D01*
X4919218Y1338326D01*
X4919218Y1353312D01*
X4923027Y1364234D01*
X4930393Y1371600D01*
X4996941Y1269745D02*
G01*
X4919218Y1269745D01*
X4996941Y1295654D02*
G01*
X4996941Y1243837D01*
X4742941Y1352550D02*
G01*
X4742941Y1389634D01*
X4709668Y1393189D01*
X4713477Y1389634D01*
X4717034Y1378457D01*
X4717034Y1367536D01*
X4713477Y1356360D01*
X4705858Y1348994D01*
X4694936Y1345184D01*
X4687570Y1345184D01*
X4676393Y1348994D01*
X4669027Y1356360D01*
X4665218Y1367536D01*
X4665218Y1378457D01*
X4669027Y1389634D01*
X4672838Y1393189D01*
X4680204Y1397000D01*
X4742941Y1320800D02*
G01*
X4665218Y1291336D01*
X4742941Y1261871D02*
G01*
X4665218Y1291336D01*
X4488941Y1367536D02*
G01*
X4411218Y1397000D01*
X4488941Y1367536D02*
G01*
X4411218Y1337818D01*
X4437125Y1385823D02*
G01*
X4437125Y1348994D01*
X4488941Y1306068D02*
G01*
X4488941Y1265428D01*
X4459477Y1287526D01*
X4459477Y1276604D01*
X4455668Y1269237D01*
X4451858Y1265428D01*
X4440936Y1261871D01*
X4433570Y1261871D01*
X4422393Y1265428D01*
X4415027Y1272794D01*
X4411218Y1283970D01*
X4411218Y1295145D01*
X4415027Y1306068D01*
X4418838Y1309878D01*
X4426204Y1313434D01*
X4234941Y1367536D02*
G01*
X4157218Y1397000D01*
X4234941Y1367536D02*
G01*
X4157218Y1337818D01*
X4183125Y1385823D02*
G01*
X4183125Y1348994D01*
X4216400Y1309878D02*
G01*
X4220209Y1309878D01*
X4227575Y1306068D01*
X4231131Y1302512D01*
X4234941Y1295145D01*
X4234941Y1280160D01*
X4231131Y1272794D01*
X4227575Y1269237D01*
X4220209Y1265428D01*
X4212843Y1265428D01*
X4205477Y1269237D01*
X4194302Y1276604D01*
X4157218Y1313434D01*
X4157218Y1261871D01*
X3980941Y1342136D02*
G01*
X3903218Y1371600D01*
X3980941Y1342136D02*
G01*
X3903218Y1312418D01*
X3929125Y1360423D02*
G01*
X3929125Y1323594D01*
X3966209Y1288034D02*
G01*
X3969765Y1280668D01*
X3980941Y1269745D01*
X3903218Y1269745D01*
X3726941Y1367536D02*
G01*
X3649218Y1397000D01*
X3726941Y1367536D02*
G01*
X3649218Y1337818D01*
X3675125Y1385823D02*
G01*
X3675125Y1348994D01*
X3726941Y1291336D02*
G01*
X3723131Y1302512D01*
X3712209Y1309878D01*
X3693668Y1313434D01*
X3682491Y1313434D01*
X3664204Y1309878D01*
X3653027Y1302512D01*
X3649218Y1291336D01*
X3649218Y1283970D01*
X3653027Y1272794D01*
X3664204Y1265428D01*
X3682491Y1261871D01*
X3693668Y1261871D01*
X3712209Y1265428D01*
X3723131Y1272794D01*
X3726941Y1283970D01*
X3726941Y1291336D01*
X3472941Y1422400D02*
G01*
X3395218Y1422400D01*
X3472941Y1422400D02*
G01*
X3472941Y1396492D01*
X3469131Y1385570D01*
X3461765Y1377950D01*
X3454400Y1374394D01*
X3443477Y1370584D01*
X3424936Y1370584D01*
X3413759Y1374394D01*
X3406393Y1377950D01*
X3399027Y1385570D01*
X3395218Y1396492D01*
X3395218Y1422400D01*
X3458209Y1346200D02*
G01*
X3461765Y1338834D01*
X3472941Y1327912D01*
X3395218Y1327912D01*
X3472941Y1259078D02*
G01*
X3472941Y1296162D01*
X3439668Y1299718D01*
X3443477Y1296162D01*
X3447034Y1284986D01*
X3447034Y1273810D01*
X3443477Y1262887D01*
X3435858Y1255521D01*
X3424936Y1251712D01*
X3417570Y1251712D01*
X3406393Y1255521D01*
X3399027Y1262887D01*
X3395218Y1273810D01*
X3395218Y1284986D01*
X3399027Y1296162D01*
X3402838Y1299718D01*
X3410204Y1303528D01*
X3218941Y1422400D02*
G01*
X3141218Y1422400D01*
X3218941Y1422400D02*
G01*
X3218941Y1396492D01*
X3215131Y1385570D01*
X3207765Y1377950D01*
X3200400Y1374394D01*
X3189477Y1370584D01*
X3170936Y1370584D01*
X3159759Y1374394D01*
X3152393Y1377950D01*
X3145027Y1385570D01*
X3141218Y1396492D01*
X3141218Y1422400D01*
X3204209Y1346200D02*
G01*
X3207765Y1338834D01*
X3218941Y1327912D01*
X3141218Y1327912D01*
X3218941Y1266444D02*
G01*
X3167125Y1303528D01*
X3167125Y1247902D01*
X3218941Y1266444D02*
G01*
X3141218Y1266444D01*
X2964941Y1422400D02*
G01*
X2887218Y1422400D01*
X2964941Y1422400D02*
G01*
X2964941Y1396492D01*
X2961131Y1385570D01*
X2953765Y1377950D01*
X2946400Y1374394D01*
X2935477Y1370584D01*
X2916936Y1370584D01*
X2905759Y1374394D01*
X2898393Y1377950D01*
X2891027Y1385570D01*
X2887218Y1396492D01*
X2887218Y1422400D01*
X2950209Y1346200D02*
G01*
X2953765Y1338834D01*
X2964941Y1327912D01*
X2887218Y1327912D01*
X2953765Y1259078D02*
G01*
X2961131Y1262887D01*
X2964941Y1273810D01*
X2964941Y1281176D01*
X2961131Y1292352D01*
X2950209Y1299718D01*
X2931668Y1303528D01*
X2913125Y1303528D01*
X2898393Y1299718D01*
X2891027Y1292352D01*
X2887218Y1281176D01*
X2887218Y1277620D01*
X2891027Y1266444D01*
X2898393Y1259078D01*
X2909570Y1255521D01*
X2913125Y1255521D01*
X2924302Y1259078D01*
X2931668Y1266444D01*
X2935477Y1277620D01*
X2935477Y1281176D01*
X2931668Y1292352D01*
X2924302Y1299718D01*
X2913125Y1303528D01*
X2710941Y1422400D02*
G01*
X2633218Y1422400D01*
X2710941Y1422400D02*
G01*
X2710941Y1396492D01*
X2707131Y1385570D01*
X2699765Y1377950D01*
X2692400Y1374394D01*
X2681477Y1370584D01*
X2662936Y1370584D01*
X2651759Y1374394D01*
X2644393Y1377950D01*
X2637027Y1385570D01*
X2633218Y1396492D01*
X2633218Y1422400D01*
X2696209Y1346200D02*
G01*
X2699765Y1338834D01*
X2710941Y1327912D01*
X2633218Y1327912D01*
X2710941Y1281176D02*
G01*
X2707131Y1292352D01*
X2696209Y1299718D01*
X2677668Y1303528D01*
X2666491Y1303528D01*
X2648204Y1299718D01*
X2637027Y1292352D01*
X2633218Y1281176D01*
X2633218Y1273810D01*
X2637027Y1262887D01*
X2648204Y1255521D01*
X2666491Y1251712D01*
X2677668Y1251712D01*
X2696209Y1255521D01*
X2707131Y1262887D01*
X2710941Y1273810D01*
X2710941Y1281176D01*
X5416041Y2286000D02*
G01*
X5360670Y2286000D01*
X5349493Y2282189D01*
X5342127Y2274823D01*
X5338318Y2263902D01*
X5338318Y2256536D01*
X5342127Y2245360D01*
X5349493Y2237994D01*
X5360670Y2234184D01*
X5416041Y2234184D01*
X5404865Y2158237D02*
G01*
X5412231Y2165604D01*
X5416041Y2176526D01*
X5416041Y2191512D01*
X5412231Y2202434D01*
X5404865Y2209800D01*
X5397500Y2209800D01*
X5390134Y2206244D01*
X5386577Y2202434D01*
X5382768Y2195068D01*
X5375402Y2172970D01*
X5371591Y2165604D01*
X5368036Y2161794D01*
X5360670Y2158237D01*
X5349493Y2158237D01*
X5342127Y2165604D01*
X5338318Y2176526D01*
X5338318Y2191512D01*
X5342127Y2202434D01*
X5349493Y2209800D01*
X5416041Y2133854D02*
G01*
X5338318Y2133854D01*
X5416041Y2133854D02*
G01*
X5416041Y2100579D01*
X5412231Y2089404D01*
X5408675Y2085847D01*
X5401309Y2082037D01*
X5393943Y2082037D01*
X5386577Y2085847D01*
X5382768Y2089404D01*
X5378958Y2100579D01*
X5378958Y2133854D02*
G01*
X5378958Y2100579D01*
X5375402Y2089404D01*
X5371591Y2085847D01*
X5364225Y2082037D01*
X5353304Y2082037D01*
X5345938Y2085847D01*
X5342127Y2089404D01*
X5338318Y2100579D01*
X5338318Y2133854D01*
X4978400Y2497328D02*
G01*
X4985765Y2500884D01*
X4993131Y2508250D01*
X4996941Y2515870D01*
X4996941Y2530602D01*
X4993131Y2537968D01*
X4985765Y2545334D01*
X4978400Y2548889D01*
X4967477Y2552700D01*
X4948936Y2552700D01*
X4937759Y2548889D01*
X4930393Y2545334D01*
X4923027Y2537968D01*
X4919218Y2530602D01*
X4919218Y2515870D01*
X4923027Y2508250D01*
X4930393Y2500884D01*
X4937759Y2497328D01*
X4948936Y2497328D01*
X4948936Y2515870D02*
G01*
X4948936Y2497328D01*
X4996941Y2472944D02*
G01*
X4919218Y2472944D01*
X4996941Y2472944D02*
G01*
X4919218Y2421128D01*
X4996941Y2421128D02*
G01*
X4919218Y2421128D01*
X4996941Y2396744D02*
G01*
X4919218Y2396744D01*
X4996941Y2396744D02*
G01*
X4996941Y2370836D01*
X4993131Y2359913D01*
X4985765Y2352547D01*
X4978400Y2348737D01*
X4967477Y2345181D01*
X4948936Y2345181D01*
X4937759Y2348737D01*
X4930393Y2352547D01*
X4923027Y2359913D01*
X4919218Y2370836D01*
X4919218Y2396744D01*
X1016000Y3163315D02*
G01*
X1016000Y3054350D01*
X1088644Y3163315D02*
G01*
X1088644Y3054350D01*
X1016000Y3111500D02*
G01*
X1088644Y3111500D01*
X1128268Y3137407D02*
G01*
X1128268Y3142487D01*
X1133347Y3152902D01*
X1138681Y3158236D01*
X1149095Y3163315D01*
X1169670Y3163315D01*
X1180084Y3158236D01*
X1185418Y3152902D01*
X1190497Y3142487D01*
X1190497Y3132073D01*
X1185418Y3121660D01*
X1175004Y3106165D01*
X1122934Y3054350D01*
X1195831Y3054350D01*
X2413000Y3163315D02*
G01*
X2413000Y3054350D01*
X2485643Y3163315D02*
G01*
X2485643Y3054350D01*
X2413000Y3111500D02*
G01*
X2485643Y3111500D01*
X2530347Y3163315D02*
G01*
X2587497Y3163315D01*
X2556509Y3121660D01*
X2572004Y3121660D01*
X2582418Y3116579D01*
X2587497Y3111500D01*
X2592831Y3095752D01*
X2592831Y3085337D01*
X2587497Y3069844D01*
X2577084Y3059429D01*
X2561590Y3054350D01*
X2546095Y3054350D01*
X2530347Y3059429D01*
X2525268Y3064510D01*
X2519934Y3074923D01*
X2794000Y813815D02*
G01*
X2794000Y704850D01*
X2866643Y813815D02*
G01*
X2866643Y704850D01*
X2794000Y762000D02*
G01*
X2866643Y762000D01*
X2953004Y813815D02*
G01*
X2900934Y741171D01*
X2978911Y741171D01*
X2953004Y813815D02*
G01*
X2953004Y704850D01*
X1270000Y813815D02*
G01*
X1270000Y704850D01*
X1342643Y813815D02*
G01*
X1342643Y704850D01*
X1270000Y762000D02*
G01*
X1342643Y762000D01*
X1439418Y813815D02*
G01*
X1387347Y813815D01*
X1382268Y767079D01*
X1387347Y772160D01*
X1403095Y777494D01*
X1418590Y777494D01*
X1434084Y772160D01*
X1444497Y762000D01*
X1449831Y746252D01*
X1449831Y735837D01*
X1444497Y720344D01*
X1434084Y709929D01*
X1418590Y704850D01*
X1403095Y704850D01*
X1387347Y709929D01*
X1382268Y715010D01*
X1376934Y725423D01*
X952500Y2655315D02*
G01*
X952500Y2577337D01*
X957579Y2561844D01*
X967994Y2551429D01*
X983742Y2546350D01*
X994155Y2546350D01*
X1009650Y2551429D01*
X1020063Y2561844D01*
X1025144Y2577337D01*
X1025144Y2655315D01*
X1064768Y2629407D02*
G01*
X1064768Y2634487D01*
X1069847Y2644902D01*
X1075181Y2650236D01*
X1085595Y2655315D01*
X1106170Y2655315D01*
X1116584Y2650236D01*
X1121918Y2644902D01*
X1126997Y2634487D01*
X1126997Y2624073D01*
X1121918Y2613660D01*
X1111504Y2598165D01*
X1059434Y2546350D01*
X1132331Y2546350D01*
D12*
X762000Y3683000D02*
G01*
X5080000Y3683000D01*
X127000Y3048000D02*
G01*
X127000Y762000D01*
X5080000Y127000D02*
G01*
X762000Y127000D01*
X5715000Y3048000D02*
G01*
X5715000Y762000D01*
D13*
X2031745Y1016254D02*
G01*
X2031745Y1524254D01*
X1777745Y1524254D01*
X1777745Y1016254D01*
X2031745Y1016254D01*
X1778254Y2793745D02*
G01*
X1778254Y2285745D01*
X2032254Y2285745D01*
X2032254Y2793745D01*
X1778254Y2793745D01*
D10*
X5486400Y1676400D02*
G01*
X5549900Y1676400D01*
X5549900Y1625600D01*
X5486400Y1625600D01*
X5486400Y2184400D02*
G01*
X5549900Y2184400D01*
X5549900Y2133600D01*
X5486400Y2133600D01*
X5842000Y2286000D02*
G01*
X5842000Y2819400D01*
X2540000Y2819400D01*
X2540000Y990600D01*
X5842000Y990600D01*
X5842000Y1524000D01*
X6070600Y2286000D02*
G01*
X6070600Y1524000D01*
X5486400Y1524000D01*
X5486400Y2286000D01*
X6070600Y2286000D01*
X6007100Y2222500D02*
G01*
X6007100Y2159000D01*
X5829300Y2159000D01*
X5829300Y2222500D01*
X6007100Y2222500D01*
X6007100Y1651000D02*
G01*
X6007100Y1587500D01*
X5829300Y1587500D01*
X5829300Y1651000D01*
X6007100Y1651000D01*
X1778000Y3556000D02*
G01*
X1778000Y3304539D01*
X1270000Y3304539D01*
X1270000Y3556000D01*
X1778000Y3556000D01*
X3048000Y3556000D02*
G01*
X3048000Y3304539D01*
X2540000Y3304539D01*
X2540000Y3556000D01*
X3048000Y3556000D01*
X3302000Y508000D02*
G01*
X3556000Y508000D01*
X3556000Y256539D01*
X2794000Y256539D01*
X2794000Y508000D01*
X3302000Y508000D01*
X1524000Y254000D02*
G01*
X1270000Y254000D01*
X1270000Y505460D01*
X2032000Y505460D01*
X2032000Y254000D01*
X1524000Y254000D01*
D14*
X1245997Y1375003D02*
G01*
X1245997Y2434996D01*
X1295908Y2435097D02*
G01*
X1295908Y1374902D01*
X816102Y1374902D01*
X816102Y2435097D01*
X1295400Y2435097D01*
X1295908Y2435097D01*
D12*
G75*
G01*
X127000Y3048000D02*
G03*
X762000Y3683000I253996J381004D01*
G75*
G01*
X762000Y127000D02*
G03*
X135456Y767504I-381003J253997D01*
G75*
G01*
X5715000Y762000D02*
G03*
X5080000Y127000I-253996J-381004D01*
G75*
G01*
X5080000Y3683000D02*
G03*
X5715000Y3048000I381004J-253996D01*
D15*
G75*
G01*
X769620Y2181860D02*
G03*
X769620Y2181606I-20000J-127D01*
M02*
