G04 Layer: BottomSilkscreenLayer*
G04 EasyEDA v6.5.22, 2023-02-27 20:34:50*
G04 caa8996452b24255bb9f00db4a7e08d3,da3b0543d5484e77bd98afd5aefff037,10*
G04 Gerber Generator version 0.2*
G04 Scale: 100 percent, Rotated: No, Reflected: No *
G04 Dimensions in millimeters *
G04 leading zeros omitted , absolute positions ,4 integer and 5 decimal *
%FSLAX45Y45*%
%MOMM*%

%ADD10C,0.2032*%
%ADD11C,0.1524*%
%ADD12C,0.2000*%

%LPD*%
D10*
X809500Y1778000D02*
G01*
X704499Y1778000D01*
X809500Y1778000D02*
G01*
X809500Y1823001D01*
X804499Y1837999D01*
X799500Y1843001D01*
X789500Y1847999D01*
X779500Y1847999D01*
X769500Y1843001D01*
X764499Y1837999D01*
X759500Y1823001D01*
X759500Y1778000D02*
G01*
X759500Y1823001D01*
X754499Y1837999D01*
X749500Y1843001D01*
X739500Y1847999D01*
X724499Y1847999D01*
X714499Y1843001D01*
X709500Y1837999D01*
X704499Y1823001D01*
X704499Y1778000D01*
X809500Y1920999D02*
G01*
X704499Y1880999D01*
X809500Y1920999D02*
G01*
X704499Y1960999D01*
X739500Y1896000D02*
G01*
X739500Y1946000D01*
X809500Y2029000D02*
G01*
X704499Y2029000D01*
X809500Y1993999D02*
G01*
X809500Y2063998D01*
X809500Y2174001D02*
G01*
X704499Y2174001D01*
X809500Y2207000D02*
G01*
X704499Y2207000D01*
X809500Y2207000D02*
G01*
X704499Y2277000D01*
X809500Y2277000D02*
G01*
X704499Y2277000D01*
D11*
X813815Y1524000D02*
G01*
X704850Y1524000D01*
X813815Y1596644D02*
G01*
X704850Y1596644D01*
X762000Y1524000D02*
G01*
X762000Y1596644D01*
X792987Y1630934D02*
G01*
X798321Y1641347D01*
X813815Y1657095D01*
X704850Y1657095D01*
D12*
X762000Y3683000D02*
G01*
X5080000Y3683000D01*
X5715000Y3048000D02*
G01*
X5715000Y762000D01*
X762000Y127000D02*
G01*
X5080000Y127000D01*
X127000Y3048000D02*
G01*
X127000Y762000D01*
D10*
X508000Y2032000D02*
G01*
X508000Y2286000D01*
X256539Y2286000D01*
X256539Y1524000D01*
X508000Y1524000D01*
X508000Y2032000D01*
D12*
G75*
G01*
X5080000Y3683000D02*
G03*
X5709717Y3044530I381004J-253996D01*
G75*
G01*
X127000Y3048000D02*
G03*
X762000Y3683000I253996J381004D01*
G75*
G01*
X762000Y127000D02*
G03*
X127000Y762000I-381004J253996D01*
G75*
G01*
X5715000Y762000D02*
G03*
X5080000Y127000I-253996J-381004D01*
M02*
