G04 Layer: TopSolderMaskLayer*
G04 EasyEDA v6.5.22, 2023-02-27 20:34:50*
G04 caa8996452b24255bb9f00db4a7e08d3,da3b0543d5484e77bd98afd5aefff037,10*
G04 Gerber Generator version 0.2*
G04 Scale: 100 percent, Rotated: No, Reflected: No *
G04 Dimensions in millimeters *
G04 leading zeros omitted , absolute positions ,4 integer and 5 decimal *
%FSLAX45Y45*%
%MOMM*%

%AMMACRO1*1,1,$1,$2,$3*1,1,$1,$4,$5*1,1,$1,0-$2,0-$3*1,1,$1,0-$4,0-$5*20,1,$1,$2,$3,$4,$5,0*20,1,$1,$4,$5,0-$2,0-$3,0*20,1,$1,0-$2,0-$3,0-$4,0-$5,0*20,1,$1,0-$4,0-$5,$2,$3,0*4,1,4,$2,$3,$4,$5,0-$2,0-$3,0-$4,0-$5,$2,$3,0*%
%ADD10C,0.1524*%
%ADD11MACRO1,0.1016X0.7874X-0.7874X0.7874X0.7874*%
%ADD12C,1.6764*%
%ADD13C,1.2954*%
%ADD14MACRO1,0.2032X0.762X0.762X0.762X-0.762*%
%ADD15C,1.7272*%
%ADD16C,6.2032*%
%ADD17C,0.9032*%
%ADD18MACRO1,0.1016X0.7874X0.7874X0.7874X-0.7874*%
%ADD19MACRO1,0.1016X-0.7874X0.7874X0.7874X0.7874*%
%ADD20MACRO1,0.1016X0.7874X-0.7874X-0.7874X-0.7874*%
%ADD21O,2.7031949999999996X2.2031959999999997*%
%ADD22MACRO1,0.2032X1.2497X1.0008X1.2497X-1.0008*%
%ADD23C,0.0149*%

%LPD*%
G36*
X3495040Y2158746D02*
G01*
X3482289Y2158390D01*
X3471824Y2157323D01*
X3459835Y2154986D01*
X3453942Y2153513D01*
X3442360Y2149906D01*
X3431082Y2145487D01*
X3420110Y2140254D01*
X3409543Y2134209D01*
X3404412Y2130958D01*
X3394456Y2123846D01*
X3384905Y2115972D01*
X3375863Y2107488D01*
X3367328Y2098294D01*
X3359353Y2088438D01*
X3351936Y2078024D01*
X3345078Y2066950D01*
X3338931Y2055368D01*
X3332632Y2041652D01*
X3330092Y2035251D01*
X3327958Y2029002D01*
X3326180Y2022805D01*
X3324758Y2016556D01*
X3323640Y2010156D01*
X3322777Y2003501D01*
X3321964Y1989023D01*
X3322016Y1975104D01*
X3381400Y1975104D01*
X3381756Y1985873D01*
X3382365Y1991309D01*
X3383229Y1996693D01*
X3385820Y2007463D01*
X3387496Y2012797D01*
X3391611Y2023262D01*
X3396691Y2033422D01*
X3402584Y2043226D01*
X3409289Y2052472D01*
X3416757Y2061159D01*
X3424936Y2069185D01*
X3433673Y2076399D01*
X3438296Y2079701D01*
X3443020Y2082749D01*
X3447846Y2085543D01*
X3452825Y2088083D01*
X3463036Y2092401D01*
X3468319Y2094077D01*
X3473653Y2095500D01*
X3478174Y2096312D01*
X3483457Y2096922D01*
X3489401Y2097278D01*
X3502558Y2097328D01*
X3516376Y2096516D01*
X3529634Y2094992D01*
X3535679Y2093975D01*
X3541115Y2092756D01*
X3545789Y2091385D01*
X3551326Y2089454D01*
X3562197Y2084781D01*
X3572814Y2079142D01*
X3578098Y2075942D01*
X3588461Y2068830D01*
X3598621Y2060702D01*
X3608628Y2051507D01*
X3618534Y2041347D01*
X3628288Y2030069D01*
X3637991Y2017725D01*
X3647592Y2004263D01*
X3655568Y1992223D01*
X3658920Y1986534D01*
X3657936Y1984451D01*
X3730345Y1984451D01*
X3745737Y2007514D01*
X3754069Y2019147D01*
X3762501Y2030069D01*
X3770985Y2040178D01*
X3779520Y2049525D01*
X3788105Y2058111D01*
X3796690Y2065832D01*
X3805275Y2072792D01*
X3813911Y2078888D01*
X3822496Y2084171D01*
X3831082Y2088642D01*
X3839616Y2092198D01*
X3843883Y2093671D01*
X3849014Y2095093D01*
X3854602Y2096262D01*
X3860495Y2097176D01*
X3866642Y2097786D01*
X3873042Y2098141D01*
X3879494Y2098243D01*
X3892600Y2097582D01*
X3899001Y2096871D01*
X3905300Y2095855D01*
X3911346Y2094585D01*
X3917035Y2093061D01*
X3923131Y2091131D01*
X3934815Y2086610D01*
X3945737Y2081275D01*
X3955897Y2075230D01*
X3960723Y2071928D01*
X3969715Y2064867D01*
X3977843Y2057247D01*
X3981602Y2053183D01*
X3988409Y2044700D01*
X3991457Y2040331D01*
X3996842Y2031136D01*
X3999179Y2026412D01*
X4001262Y2021586D01*
X4003090Y2016709D01*
X4004665Y2011730D01*
X4005986Y2006650D01*
X4007053Y2001520D01*
X4007815Y1996338D01*
X4008323Y1991106D01*
X4008475Y1980539D01*
X4008120Y1975154D01*
X4006545Y1964385D01*
X4003751Y1953564D01*
X4001871Y1948180D01*
X3999687Y1942846D01*
X3994556Y1932432D01*
X3991559Y1927352D01*
X3984853Y1917547D01*
X3977233Y1908251D01*
X3968800Y1899564D01*
X3964279Y1895500D01*
X3954729Y1887931D01*
X3949700Y1884476D01*
X3939286Y1878279D01*
X3928364Y1873046D01*
X3918407Y1869490D01*
X3913327Y1868119D01*
X3908196Y1867001D01*
X3897731Y1865579D01*
X3892397Y1865223D01*
X3881628Y1865325D01*
X3870756Y1866392D01*
X3859834Y1868424D01*
X3854348Y1869795D01*
X3843477Y1873250D01*
X3832656Y1877618D01*
X3821988Y1882902D01*
X3811473Y1889048D01*
X3801262Y1896059D01*
X3791407Y1903933D01*
X3786581Y1908149D01*
X3777234Y1917242D01*
X3768394Y1927098D01*
X3761181Y1936140D01*
X3748328Y1954428D01*
X3742690Y1963267D01*
X3730345Y1984451D01*
X3657936Y1984451D01*
X3653078Y1976018D01*
X3645458Y1963724D01*
X3637279Y1951583D01*
X3628796Y1939899D01*
X3620109Y1928774D01*
X3611372Y1918411D01*
X3602634Y1908860D01*
X3594049Y1900326D01*
X3585768Y1892858D01*
X3577844Y1886610D01*
X3570376Y1881682D01*
X3566871Y1879752D01*
X3557219Y1875332D01*
X3547618Y1871980D01*
X3542792Y1870659D01*
X3537813Y1869592D01*
X3527450Y1868119D01*
X3516172Y1867560D01*
X3503625Y1867712D01*
X3496411Y1868220D01*
X3489299Y1868982D01*
X3482289Y1870100D01*
X3475431Y1871522D01*
X3468674Y1873199D01*
X3462070Y1875231D01*
X3455670Y1877517D01*
X3449421Y1880107D01*
X3443376Y1882952D01*
X3437534Y1886051D01*
X3431946Y1889404D01*
X3426612Y1893062D01*
X3421532Y1896922D01*
X3416757Y1901037D01*
X3412236Y1905355D01*
X3408019Y1909927D01*
X3404006Y1915007D01*
X3400044Y1920748D01*
X3396284Y1926996D01*
X3392779Y1933549D01*
X3389629Y1940255D01*
X3386937Y1946859D01*
X3384753Y1953260D01*
X3383229Y1959203D01*
X3382314Y1964436D01*
X3381705Y1969719D01*
X3381400Y1975104D01*
X3322016Y1975104D01*
X3322370Y1963013D01*
X3323234Y1949399D01*
X3323844Y1944217D01*
X3324758Y1939594D01*
X3325926Y1935124D01*
X3329482Y1924862D01*
X3334054Y1913737D01*
X3339134Y1903222D01*
X3344722Y1893214D01*
X3350869Y1883765D01*
X3357575Y1874824D01*
X3364890Y1866392D01*
X3372764Y1858467D01*
X3381197Y1851050D01*
X3390290Y1844039D01*
X3400044Y1837537D01*
X3410356Y1831492D01*
X3421379Y1825853D01*
X3433064Y1820519D01*
X3443630Y1816201D01*
X3453587Y1812848D01*
X3463391Y1810308D01*
X3473551Y1808581D01*
X3484524Y1807413D01*
X3496767Y1806854D01*
X3510838Y1806702D01*
X3529736Y1806905D01*
X3542334Y1807667D01*
X3547414Y1808378D01*
X3557473Y1810715D01*
X3568903Y1814220D01*
X3579774Y1818284D01*
X3590290Y1823008D01*
X3600500Y1828393D01*
X3605529Y1831339D01*
X3615334Y1837893D01*
X3624986Y1845208D01*
X3634486Y1853387D01*
X3643934Y1862480D01*
X3653332Y1872437D01*
X3662781Y1883410D01*
X3672281Y1895398D01*
X3693566Y1924761D01*
X3709162Y1902612D01*
X3717290Y1892249D01*
X3726179Y1882089D01*
X3735679Y1872234D01*
X3745687Y1862785D01*
X3756101Y1853793D01*
X3766718Y1845462D01*
X3777437Y1837842D01*
X3788156Y1831086D01*
X3798722Y1825294D01*
X3809542Y1820265D01*
X3821125Y1815744D01*
X3832961Y1811934D01*
X3845001Y1808784D01*
X3857142Y1806346D01*
X3869182Y1804619D01*
X3881018Y1803603D01*
X3892600Y1803349D01*
X3898239Y1803501D01*
X3909110Y1804416D01*
X3919372Y1806143D01*
X3931056Y1809140D01*
X3942943Y1813153D01*
X3954932Y1818030D01*
X3966819Y1823821D01*
X3978401Y1830324D01*
X3989578Y1837486D01*
X4000093Y1845259D01*
X4009847Y1853438D01*
X4018534Y1862023D01*
X4026915Y1871725D01*
X4034942Y1882393D01*
X4042410Y1893722D01*
X4049217Y1905507D01*
X4055211Y1917547D01*
X4060190Y1929536D01*
X4062272Y1935429D01*
X4064050Y1941271D01*
X4065371Y1946554D01*
X4066540Y1952345D01*
X4068267Y1965147D01*
X4069283Y1978761D01*
X4069486Y1992274D01*
X4068826Y2004720D01*
X4068165Y2010308D01*
X4067301Y2015236D01*
X4064254Y2027478D01*
X4062425Y2033473D01*
X4058107Y2045106D01*
X4052976Y2056333D01*
X4047032Y2067153D01*
X4040378Y2077516D01*
X4032910Y2087372D01*
X4024782Y2096770D01*
X4015892Y2105609D01*
X4011218Y2109876D01*
X4001312Y2117902D01*
X3990797Y2125370D01*
X3985310Y2128926D01*
X3973829Y2135479D01*
X3961790Y2141423D01*
X3949141Y2146757D01*
X3935933Y2151430D01*
X3924198Y2154834D01*
X3919575Y2155901D01*
X3909923Y2157323D01*
X3897579Y2157984D01*
X3880002Y2158187D01*
X3862984Y2157933D01*
X3855720Y2157628D01*
X3849166Y2157069D01*
X3843121Y2156307D01*
X3837432Y2155291D01*
X3831945Y2154021D01*
X3826459Y2152396D01*
X3820871Y2150414D01*
X3808729Y2145233D01*
X3796792Y2139492D01*
X3786632Y2133752D01*
X3776421Y2127148D01*
X3766261Y2119833D01*
X3756253Y2111806D01*
X3746398Y2103170D01*
X3736898Y2093975D01*
X3727754Y2084374D01*
X3719118Y2074316D01*
X3710990Y2064004D01*
X3703116Y2053082D01*
X3697071Y2045309D01*
X3695801Y2044141D01*
X3694582Y2045207D01*
X3688587Y2052523D01*
X3681374Y2062175D01*
X3673906Y2071217D01*
X3665372Y2080717D01*
X3656177Y2090267D01*
X3646525Y2099564D01*
X3636924Y2108301D01*
X3627577Y2116074D01*
X3618941Y2122627D01*
X3609746Y2128621D01*
X3598722Y2134870D01*
X3587343Y2140559D01*
X3575812Y2145538D01*
X3564483Y2149703D01*
X3553561Y2152954D01*
X3542893Y2155240D01*
X3530193Y2156917D01*
X3516223Y2158085D01*
X3501999Y2158695D01*
G37*
G36*
X4053738Y2144826D02*
G01*
X4052773Y2144471D01*
X4051706Y2143455D01*
X4050639Y2141982D01*
X4047845Y2135581D01*
X4046474Y2140204D01*
X4045356Y2142642D01*
X4043426Y2144014D01*
X4039717Y2144572D01*
X4029303Y2144420D01*
X4026408Y2144166D01*
X4025036Y2143810D01*
X4027170Y2142591D01*
X4028287Y2141016D01*
X4028897Y2138680D01*
X4029303Y2132685D01*
X4029710Y2130450D01*
X4030370Y2128926D01*
X4031183Y2128367D01*
X4031996Y2128926D01*
X4032656Y2130501D01*
X4033062Y2132787D01*
X4033418Y2138832D01*
X4033977Y2141067D01*
X4034942Y2142337D01*
X4036314Y2142744D01*
X4037736Y2142337D01*
X4038650Y2141067D01*
X4039209Y2138832D01*
X4039920Y2130958D01*
X4041190Y2128621D01*
X4042714Y2128824D01*
X4044137Y2131974D01*
X4045000Y2134565D01*
X4045356Y2131974D01*
X4046118Y2129231D01*
X4047591Y2128520D01*
X4049369Y2129790D01*
X4050944Y2132990D01*
X4052468Y2137613D01*
X4054703Y2130247D01*
X4055211Y2130044D01*
X4055668Y2136089D01*
X4055567Y2139492D01*
X4055160Y2142236D01*
X4054551Y2144115D01*
G37*
G36*
X3860495Y2039924D02*
G01*
X3860495Y2004974D01*
X3827576Y2004974D01*
X3827576Y1970024D01*
X3860495Y1970024D01*
X3860495Y1935022D01*
X3895445Y1935022D01*
X3895445Y1970024D01*
X3930396Y1970024D01*
X3930396Y2004974D01*
X3895445Y2004974D01*
X3895445Y2039924D01*
G37*
G36*
X3445001Y2000859D02*
G01*
X3445001Y1974138D01*
X3568446Y1974138D01*
X3568446Y2000859D01*
G37*
G36*
X4019042Y1778304D02*
G01*
X4013758Y1778000D01*
X4007358Y1776831D01*
X4002328Y1775358D01*
X3997604Y1773377D01*
X3993184Y1770888D01*
X3989120Y1767839D01*
X3985412Y1764334D01*
X3982008Y1760372D01*
X3978960Y1755952D01*
X3976268Y1751126D01*
X3974033Y1745945D01*
X3972102Y1740357D01*
X3970629Y1734413D01*
X3969562Y1728165D01*
X3968902Y1721612D01*
X3968776Y1717395D01*
X3994454Y1717395D01*
X3994607Y1724253D01*
X3995115Y1730451D01*
X3996080Y1735937D01*
X3997401Y1740712D01*
X3999128Y1744878D01*
X4001262Y1748332D01*
X4003801Y1751177D01*
X4006748Y1753362D01*
X4010151Y1754886D01*
X4013962Y1755800D01*
X4018178Y1756105D01*
X4023715Y1755546D01*
X4028440Y1753819D01*
X4032351Y1750872D01*
X4035501Y1746605D01*
X4037939Y1741068D01*
X4039717Y1734159D01*
X4040784Y1725828D01*
X4041190Y1716024D01*
X4040733Y1703425D01*
X4040174Y1697736D01*
X4039463Y1693367D01*
X4037584Y1687779D01*
X4034739Y1683054D01*
X4031132Y1679244D01*
X4026915Y1676400D01*
X4022191Y1674672D01*
X4017162Y1674114D01*
X4011980Y1674774D01*
X4006799Y1676755D01*
X4004005Y1678533D01*
X4001668Y1680768D01*
X3999687Y1683512D01*
X3998112Y1686966D01*
X3996893Y1691233D01*
X3995928Y1696364D01*
X3995216Y1702562D01*
X3994708Y1709826D01*
X3994454Y1717395D01*
X3968776Y1717395D01*
X3968953Y1707692D01*
X3969664Y1700377D01*
X3970578Y1694230D01*
X3971899Y1688490D01*
X3973525Y1683156D01*
X3975455Y1678178D01*
X3977690Y1673656D01*
X3980281Y1669542D01*
X3983177Y1665782D01*
X3986377Y1662480D01*
X3989882Y1659636D01*
X3993692Y1657197D01*
X3997807Y1655165D01*
X4002227Y1653590D01*
X4009288Y1651863D01*
X4015689Y1651406D01*
X4022496Y1652270D01*
X4030979Y1654454D01*
X4036618Y1656537D01*
X4041800Y1659229D01*
X4046626Y1662633D01*
X4050893Y1666544D01*
X4054703Y1671066D01*
X4057954Y1676044D01*
X4060647Y1681530D01*
X4062679Y1687423D01*
X4064000Y1693468D01*
X4065015Y1700530D01*
X4065676Y1708150D01*
X4065930Y1716024D01*
X4065828Y1723796D01*
X4065371Y1731060D01*
X4064508Y1737512D01*
X4063288Y1742744D01*
X4060799Y1749856D01*
X4058107Y1755851D01*
X4055110Y1760931D01*
X4051706Y1765147D01*
X4047794Y1768652D01*
X4043273Y1771497D01*
X4038041Y1773885D01*
X4031945Y1775815D01*
X4024680Y1777542D01*
G37*
G36*
X3549904Y1777339D02*
G01*
X3549904Y1756105D01*
X3582924Y1756105D01*
X3588562Y1755851D01*
X3593592Y1754987D01*
X3598113Y1753514D01*
X3602075Y1751482D01*
X3605479Y1748789D01*
X3608374Y1745538D01*
X3610711Y1741576D01*
X3612591Y1737004D01*
X3613962Y1731721D01*
X3614826Y1725777D01*
X3615182Y1719122D01*
X3615131Y1711756D01*
X3614572Y1703476D01*
X3613658Y1697177D01*
X3612134Y1692198D01*
X3610000Y1687931D01*
X3605631Y1682394D01*
X3600145Y1678533D01*
X3592880Y1675942D01*
X3583330Y1674368D01*
X3572560Y1673250D01*
X3572560Y1756105D01*
X3549904Y1756105D01*
X3549904Y1652676D01*
X3574338Y1653793D01*
X3586581Y1654556D01*
X3595725Y1655622D01*
X3602786Y1657197D01*
X3608781Y1659331D01*
X3615080Y1662531D01*
X3620668Y1666290D01*
X3625596Y1670507D01*
X3629812Y1675282D01*
X3633317Y1680514D01*
X3636111Y1686153D01*
X3638143Y1692300D01*
X3639413Y1698853D01*
X3640785Y1709877D01*
X3641394Y1717497D01*
X3641242Y1723694D01*
X3640429Y1730400D01*
X3639007Y1737766D01*
X3637026Y1744421D01*
X3634536Y1750364D01*
X3631437Y1755648D01*
X3627678Y1760270D01*
X3623360Y1764334D01*
X3618382Y1767789D01*
X3612692Y1770684D01*
X3607003Y1772666D01*
X3599687Y1774139D01*
X3589832Y1775206D01*
G37*
G36*
X3765854Y1776679D02*
G01*
X3765854Y1756105D01*
X3792626Y1756105D01*
X3792626Y1673860D01*
X3765854Y1673860D01*
X3765854Y1655318D01*
X3844036Y1655318D01*
X3844036Y1673860D01*
X3817264Y1673860D01*
X3817264Y1756105D01*
X3844036Y1756105D01*
X3844036Y1776679D01*
G37*
G36*
X3656837Y1776679D02*
G01*
X3656888Y1713585D01*
X3657142Y1693011D01*
X3657549Y1686407D01*
X3658108Y1681581D01*
X3658920Y1677924D01*
X3660038Y1674825D01*
X3661511Y1671726D01*
X3664153Y1667408D01*
X3667658Y1663496D01*
X3671824Y1659991D01*
X3676548Y1656994D01*
X3681729Y1654556D01*
X3687267Y1652778D01*
X3693007Y1651609D01*
X3698900Y1651254D01*
X3706368Y1651863D01*
X3713581Y1653641D01*
X3720439Y1656384D01*
X3726789Y1660093D01*
X3732377Y1664563D01*
X3737051Y1669745D01*
X3740708Y1675434D01*
X3743147Y1681632D01*
X3743604Y1684070D01*
X3744315Y1693367D01*
X3744925Y1707286D01*
X3745229Y1724050D01*
X3745280Y1776679D01*
X3722674Y1776679D01*
X3722370Y1729943D01*
X3722573Y1702511D01*
X3721506Y1694027D01*
X3720592Y1689252D01*
X3719169Y1683461D01*
X3717544Y1679498D01*
X3715410Y1676857D01*
X3712362Y1674825D01*
X3707739Y1672996D01*
X3703015Y1672132D01*
X3698392Y1672132D01*
X3693972Y1673047D01*
X3689959Y1674774D01*
X3686505Y1677263D01*
X3683711Y1680464D01*
X3681780Y1684375D01*
X3681272Y1686560D01*
X3680460Y1694891D01*
X3679850Y1707743D01*
X3679545Y1724355D01*
X3679494Y1776679D01*
G37*
G36*
X3448100Y1775663D02*
G01*
X3447926Y1756613D01*
X3471773Y1756613D01*
X3489198Y1754987D01*
X3493363Y1753920D01*
X3496462Y1752295D01*
X3498850Y1750009D01*
X3501186Y1746148D01*
X3502406Y1741779D01*
X3502456Y1737156D01*
X3501339Y1732534D01*
X3498545Y1728978D01*
X3493515Y1726031D01*
X3487115Y1723948D01*
X3480104Y1723186D01*
X3471773Y1723186D01*
X3471773Y1756613D01*
X3447926Y1756613D01*
X3447034Y1653286D01*
X3471773Y1653286D01*
X3471773Y1705152D01*
X3477412Y1703781D01*
X3480409Y1702816D01*
X3483051Y1701495D01*
X3485438Y1699615D01*
X3487775Y1696923D01*
X3490214Y1693316D01*
X3492804Y1688541D01*
X3499154Y1674875D01*
X3508248Y1654302D01*
X3524859Y1653590D01*
X3528974Y1653743D01*
X3532022Y1654098D01*
X3533546Y1654708D01*
X3533190Y1657299D01*
X3531158Y1663090D01*
X3527704Y1671218D01*
X3523284Y1680870D01*
X3513836Y1698955D01*
X3510076Y1705102D01*
X3507689Y1708099D01*
X3505301Y1710182D01*
X3504793Y1710943D01*
X3504793Y1711350D01*
X3511804Y1715058D01*
X3516579Y1718106D01*
X3520440Y1721967D01*
X3523487Y1726438D01*
X3525621Y1731365D01*
X3526891Y1736648D01*
X3527298Y1742084D01*
X3526840Y1747520D01*
X3525520Y1752854D01*
X3523335Y1757934D01*
X3520287Y1762556D01*
X3516325Y1766570D01*
X3511550Y1769922D01*
X3506368Y1772310D01*
X3500069Y1773783D01*
X3490518Y1774596D01*
G37*
G36*
X3866642Y1774647D02*
G01*
X3866642Y1653286D01*
X3889197Y1653286D01*
X3890314Y1737614D01*
X3927297Y1653336D01*
X3955084Y1653286D01*
X3955084Y1774647D01*
X3934612Y1774647D01*
X3933494Y1692148D01*
X3896969Y1774647D01*
G37*
G36*
X3365652Y1774647D02*
G01*
X3343220Y1698498D01*
X3367227Y1698498D01*
X3367582Y1701088D01*
X3376726Y1734515D01*
X3380740Y1746961D01*
X3381298Y1747875D01*
X3382213Y1746046D01*
X3386226Y1734159D01*
X3391103Y1717497D01*
X3394760Y1703628D01*
X3395421Y1700072D01*
X3395065Y1698193D01*
X3393033Y1697126D01*
X3388664Y1696618D01*
X3381044Y1696466D01*
X3372815Y1696567D01*
X3368548Y1697126D01*
X3367227Y1698498D01*
X3343220Y1698498D01*
X3330448Y1655825D01*
X3330651Y1654657D01*
X3332479Y1653844D01*
X3336086Y1653438D01*
X3353866Y1653286D01*
X3360724Y1677974D01*
X3401618Y1677974D01*
X3408527Y1653286D01*
X3426714Y1653387D01*
X3430828Y1653743D01*
X3433572Y1654200D01*
X3434537Y1654810D01*
X3416604Y1715516D01*
X3398824Y1774647D01*
G37*
D10*
X3252215Y2286000D02*
G01*
X3155188Y2286000D01*
X3252215Y2286000D02*
G01*
X3252215Y2244344D01*
X3247390Y2230628D01*
X3242818Y2226055D01*
X3233674Y2221229D01*
X3219704Y2221229D01*
X3210559Y2226055D01*
X3205988Y2230628D01*
X3201415Y2244344D01*
X3201415Y2286000D01*
X3252215Y2190750D02*
G01*
X3155188Y2190750D01*
X3252215Y2190750D02*
G01*
X3252215Y2149347D01*
X3247390Y2135378D01*
X3242818Y2130805D01*
X3233674Y2126234D01*
X3224529Y2126234D01*
X3215131Y2130805D01*
X3210559Y2135378D01*
X3205988Y2149347D01*
X3205988Y2190750D01*
X3205988Y2158492D02*
G01*
X3155188Y2126234D01*
X3252215Y2068068D02*
G01*
X3247390Y2077212D01*
X3238245Y2086610D01*
X3229102Y2091181D01*
X3215131Y2095754D01*
X3192018Y2095754D01*
X3178302Y2091181D01*
X3168904Y2086610D01*
X3159759Y2077212D01*
X3155188Y2068068D01*
X3155188Y2049526D01*
X3159759Y2040381D01*
X3168904Y2030984D01*
X3178302Y2026412D01*
X3192018Y2021839D01*
X3215131Y2021839D01*
X3229102Y2026412D01*
X3238245Y2030984D01*
X3247390Y2040381D01*
X3252215Y2049526D01*
X3252215Y2068068D01*
X3252215Y1920239D02*
G01*
X3155188Y1920239D01*
X3252215Y1920239D02*
G01*
X3155188Y1883410D01*
X3252215Y1846326D02*
G01*
X3155188Y1883410D01*
X3252215Y1846326D02*
G01*
X3155188Y1846326D01*
X3252215Y1815845D02*
G01*
X3155188Y1815845D01*
X3229102Y1716023D02*
G01*
X3238245Y1720850D01*
X3247390Y1729994D01*
X3252215Y1739137D01*
X3252215Y1757679D01*
X3247390Y1766823D01*
X3238245Y1776221D01*
X3229102Y1780794D01*
X3215131Y1785365D01*
X3192018Y1785365D01*
X3178302Y1780794D01*
X3168904Y1776221D01*
X3159759Y1766823D01*
X3155188Y1757679D01*
X3155188Y1739137D01*
X3159759Y1729994D01*
X3168904Y1720850D01*
X3178302Y1716023D01*
X3252215Y1685544D02*
G01*
X3155188Y1685544D01*
X3252215Y1685544D02*
G01*
X3252215Y1644142D01*
X3247390Y1630171D01*
X3242818Y1625600D01*
X3233674Y1621028D01*
X3224529Y1621028D01*
X3215131Y1625600D01*
X3210559Y1630171D01*
X3205988Y1644142D01*
X3205988Y1685544D01*
X3205988Y1653286D02*
G01*
X3155188Y1621028D01*
X3252215Y1562862D02*
G01*
X3247390Y1572005D01*
X3238245Y1581150D01*
X3229102Y1585976D01*
X3215131Y1590547D01*
X3192018Y1590547D01*
X3178302Y1585976D01*
X3168904Y1581150D01*
X3159759Y1572005D01*
X3155188Y1562862D01*
X3155188Y1544320D01*
X3159759Y1535176D01*
X3168904Y1525778D01*
X3178302Y1521205D01*
X3192018Y1516634D01*
X3215131Y1516634D01*
X3229102Y1521205D01*
X3238245Y1525778D01*
X3247390Y1535176D01*
X3252215Y1544320D01*
X3252215Y1562862D01*
X4229100Y2075942D02*
G01*
X4258563Y1998218D01*
X4288281Y2075942D02*
G01*
X4258563Y1998218D01*
X4312665Y2075942D02*
G01*
X4312665Y1998218D01*
X4337050Y2075942D02*
G01*
X4337050Y1998218D01*
X4337050Y2075942D02*
G01*
X4388611Y1998218D01*
X4388611Y2075942D02*
G01*
X4388611Y1998218D01*
X4416806Y2042668D02*
G01*
X4412995Y2038857D01*
X4416806Y2035302D01*
X4420361Y2038857D01*
X4416806Y2042668D01*
X4416806Y2016760D02*
G01*
X4412995Y2013204D01*
X4416806Y2009394D01*
X4420361Y2013204D01*
X4416806Y2016760D01*
X4546091Y2064765D02*
G01*
X4542281Y2072131D01*
X4531359Y2075942D01*
X4523993Y2075942D01*
X4512818Y2072131D01*
X4505452Y2061210D01*
X4501641Y2042668D01*
X4501641Y2024126D01*
X4505452Y2009394D01*
X4512818Y2002028D01*
X4523993Y1998218D01*
X4527550Y1998218D01*
X4538725Y2002028D01*
X4546091Y2009394D01*
X4549902Y2020570D01*
X4549902Y2024126D01*
X4546091Y2035302D01*
X4538725Y2042668D01*
X4527550Y2046478D01*
X4523993Y2046478D01*
X4512818Y2042668D01*
X4505452Y2035302D01*
X4501641Y2024126D01*
X4574286Y2031492D02*
G01*
X4640579Y2031492D01*
X4664963Y2061210D02*
G01*
X4672329Y2064765D01*
X4683506Y2075942D01*
X4683506Y1998218D01*
X4711700Y2057400D02*
G01*
X4711700Y2061210D01*
X4715256Y2068576D01*
X4719065Y2072131D01*
X4726431Y2075942D01*
X4741163Y2075942D01*
X4748529Y2072131D01*
X4752340Y2068576D01*
X4755895Y2061210D01*
X4755895Y2053844D01*
X4752340Y2046478D01*
X4744974Y2035302D01*
X4707890Y1998218D01*
X4759706Y1998218D01*
X4784090Y2075942D02*
G01*
X4813554Y1998218D01*
X4843018Y2075942D02*
G01*
X4813554Y1998218D01*
X4236465Y1948942D02*
G01*
X4277106Y1948942D01*
X4255008Y1919478D01*
X4265929Y1919478D01*
X4273550Y1915668D01*
X4277106Y1911857D01*
X4280915Y1900936D01*
X4280915Y1893570D01*
X4277106Y1882394D01*
X4269740Y1875028D01*
X4258563Y1871218D01*
X4247641Y1871218D01*
X4236465Y1875028D01*
X4232909Y1878837D01*
X4229100Y1886204D01*
X4305300Y1948942D02*
G01*
X4334763Y1871218D01*
X4364227Y1948942D02*
G01*
X4334763Y1871218D01*
X4395977Y1948942D02*
G01*
X4436618Y1948942D01*
X4414520Y1919478D01*
X4425695Y1919478D01*
X4433061Y1915668D01*
X4436618Y1911857D01*
X4440427Y1900936D01*
X4440427Y1893570D01*
X4436618Y1882394D01*
X4429252Y1875028D01*
X4418329Y1871218D01*
X4407154Y1871218D01*
X4395977Y1875028D01*
X4392422Y1878837D01*
X4388611Y1886204D01*
X4521708Y1923034D02*
G01*
X4521708Y1871218D01*
X4521708Y1908302D02*
G01*
X4532884Y1919478D01*
X4540250Y1923034D01*
X4551172Y1923034D01*
X4558538Y1919478D01*
X4562347Y1908302D01*
X4562347Y1871218D01*
X4562347Y1908302D02*
G01*
X4573524Y1919478D01*
X4580890Y1923034D01*
X4591811Y1923034D01*
X4599177Y1919478D01*
X4602988Y1908302D01*
X4602988Y1871218D01*
X4671822Y1923034D02*
G01*
X4671822Y1871218D01*
X4671822Y1911857D02*
G01*
X4664202Y1919478D01*
X4656836Y1923034D01*
X4645913Y1923034D01*
X4638547Y1919478D01*
X4631181Y1911857D01*
X4627372Y1900936D01*
X4627372Y1893570D01*
X4631181Y1882394D01*
X4638547Y1875028D01*
X4645913Y1871218D01*
X4656836Y1871218D01*
X4664202Y1875028D01*
X4671822Y1882394D01*
X4696206Y1923034D02*
G01*
X4736845Y1871218D01*
X4736845Y1923034D02*
G01*
X4696206Y1871218D01*
X4764786Y1915668D02*
G01*
X4761229Y1911857D01*
X4764786Y1908302D01*
X4768595Y1911857D01*
X4764786Y1915668D01*
X4764786Y1889760D02*
G01*
X4761229Y1886204D01*
X4764786Y1882394D01*
X4768595Y1886204D01*
X4764786Y1889760D01*
X4894072Y1948942D02*
G01*
X4857241Y1948942D01*
X4853431Y1915668D01*
X4857241Y1919478D01*
X4868163Y1923034D01*
X4879340Y1923034D01*
X4890515Y1919478D01*
X4897881Y1911857D01*
X4901438Y1900936D01*
X4901438Y1893570D01*
X4897881Y1882394D01*
X4890515Y1875028D01*
X4879340Y1871218D01*
X4868163Y1871218D01*
X4857241Y1875028D01*
X4853431Y1878837D01*
X4849875Y1886204D01*
X4948174Y1948942D02*
G01*
X4936997Y1945131D01*
X4929631Y1934210D01*
X4925822Y1915668D01*
X4925822Y1904492D01*
X4929631Y1886204D01*
X4936997Y1875028D01*
X4948174Y1871218D01*
X4955540Y1871218D01*
X4966461Y1875028D01*
X4973827Y1886204D01*
X4977638Y1904492D01*
X4977638Y1915668D01*
X4973827Y1934210D01*
X4966461Y1945131D01*
X4955540Y1948942D01*
X4948174Y1948942D01*
X5002022Y1923034D02*
G01*
X5002022Y1871218D01*
X5002022Y1908302D02*
G01*
X5013197Y1919478D01*
X5020563Y1923034D01*
X5031486Y1923034D01*
X5038852Y1919478D01*
X5042661Y1908302D01*
X5042661Y1871218D01*
X5042661Y1908302D02*
G01*
X5053838Y1919478D01*
X5061204Y1923034D01*
X5072125Y1923034D01*
X5079491Y1919478D01*
X5083302Y1908302D01*
X5083302Y1871218D01*
X5137150Y1948942D02*
G01*
X5107686Y1871218D01*
X5137150Y1948942D02*
G01*
X5166868Y1871218D01*
X5118861Y1897126D02*
G01*
X5155691Y1897126D01*
X4273550Y1821942D02*
G01*
X4236465Y1821942D01*
X4232909Y1788668D01*
X4236465Y1792478D01*
X4247641Y1796034D01*
X4258563Y1796034D01*
X4269740Y1792478D01*
X4277106Y1784857D01*
X4280915Y1773936D01*
X4280915Y1766570D01*
X4277106Y1755394D01*
X4269740Y1748028D01*
X4258563Y1744218D01*
X4247641Y1744218D01*
X4236465Y1748028D01*
X4232909Y1751837D01*
X4229100Y1759204D01*
X4305300Y1821942D02*
G01*
X4334763Y1744218D01*
X4364227Y1821942D02*
G01*
X4334763Y1744218D01*
X4445508Y1796034D02*
G01*
X4445508Y1744218D01*
X4445508Y1781302D02*
G01*
X4456684Y1792478D01*
X4464050Y1796034D01*
X4475225Y1796034D01*
X4482591Y1792478D01*
X4486147Y1781302D01*
X4486147Y1744218D01*
X4486147Y1781302D02*
G01*
X4497324Y1792478D01*
X4504690Y1796034D01*
X4515865Y1796034D01*
X4523231Y1792478D01*
X4526788Y1781302D01*
X4526788Y1744218D01*
X4595622Y1796034D02*
G01*
X4595622Y1744218D01*
X4595622Y1784857D02*
G01*
X4588256Y1792478D01*
X4580890Y1796034D01*
X4569713Y1796034D01*
X4562347Y1792478D01*
X4554981Y1784857D01*
X4551172Y1773936D01*
X4551172Y1766570D01*
X4554981Y1755394D01*
X4562347Y1748028D01*
X4569713Y1744218D01*
X4580890Y1744218D01*
X4588256Y1748028D01*
X4595622Y1755394D01*
X4620006Y1796034D02*
G01*
X4660645Y1744218D01*
X4660645Y1796034D02*
G01*
X4620006Y1744218D01*
X4688586Y1788668D02*
G01*
X4685029Y1784857D01*
X4688586Y1781302D01*
X4692395Y1784857D01*
X4688586Y1788668D01*
X4688586Y1762760D02*
G01*
X4685029Y1759204D01*
X4688586Y1755394D01*
X4692395Y1759204D01*
X4688586Y1762760D01*
X4773675Y1807210D02*
G01*
X4781041Y1810765D01*
X4792218Y1821942D01*
X4792218Y1744218D01*
X4838700Y1821942D02*
G01*
X4827524Y1818131D01*
X4820158Y1807210D01*
X4816602Y1788668D01*
X4816602Y1777492D01*
X4820158Y1759204D01*
X4827524Y1748028D01*
X4838700Y1744218D01*
X4846065Y1744218D01*
X4857241Y1748028D01*
X4864608Y1759204D01*
X4868163Y1777492D01*
X4868163Y1788668D01*
X4864608Y1807210D01*
X4857241Y1818131D01*
X4846065Y1821942D01*
X4838700Y1821942D01*
X4914900Y1821942D02*
G01*
X4903724Y1818131D01*
X4896358Y1807210D01*
X4892547Y1788668D01*
X4892547Y1777492D01*
X4896358Y1759204D01*
X4903724Y1748028D01*
X4914900Y1744218D01*
X4922265Y1744218D01*
X4933188Y1748028D01*
X4940554Y1759204D01*
X4944363Y1777492D01*
X4944363Y1788668D01*
X4940554Y1807210D01*
X4933188Y1818131D01*
X4922265Y1821942D01*
X4914900Y1821942D01*
X4990845Y1821942D02*
G01*
X4979924Y1818131D01*
X4972558Y1807210D01*
X4968747Y1788668D01*
X4968747Y1777492D01*
X4972558Y1759204D01*
X4979924Y1748028D01*
X4990845Y1744218D01*
X4998211Y1744218D01*
X5009388Y1748028D01*
X5016754Y1759204D01*
X5020563Y1777492D01*
X5020563Y1788668D01*
X5016754Y1807210D01*
X5009388Y1818131D01*
X4998211Y1821942D01*
X4990845Y1821942D01*
X5044947Y1796034D02*
G01*
X5044947Y1744218D01*
X5044947Y1781302D02*
G01*
X5055870Y1792478D01*
X5063236Y1796034D01*
X5074411Y1796034D01*
X5081777Y1792478D01*
X5085588Y1781302D01*
X5085588Y1744218D01*
X5085588Y1781302D02*
G01*
X5096509Y1792478D01*
X5103875Y1796034D01*
X5115052Y1796034D01*
X5122418Y1792478D01*
X5126227Y1781302D01*
X5126227Y1744218D01*
X5180075Y1821942D02*
G01*
X5150611Y1744218D01*
X5180075Y1821942D02*
G01*
X5209540Y1744218D01*
X5161534Y1770126D02*
G01*
X5198618Y1770126D01*
D11*
G01*
X381000Y1651000D03*
D12*
G01*
X381000Y1905000D03*
G01*
X381000Y2159000D03*
D13*
G01*
X1905000Y1397000D03*
G01*
X1905000Y1143000D03*
G01*
X1905000Y2413000D03*
G01*
X1905000Y2667000D03*
D14*
G01*
X5461000Y2667000D03*
D15*
G01*
X5207000Y2667000D03*
G01*
X4699000Y2667000D03*
G01*
X4445000Y2667000D03*
G01*
X4191000Y2667000D03*
G01*
X3937000Y2667000D03*
G01*
X3683000Y2667000D03*
G01*
X3429000Y2667000D03*
G01*
X3175000Y2667000D03*
G01*
X2921000Y2667000D03*
G01*
X2667000Y2667000D03*
G01*
X2667000Y1143000D03*
G01*
X2921000Y1143000D03*
G01*
X3175000Y1143000D03*
G01*
X3429000Y1143000D03*
G01*
X3683000Y1143000D03*
G01*
X3937000Y1143000D03*
G01*
X4191000Y1143000D03*
G01*
X4445000Y1143000D03*
G01*
X4699000Y1143000D03*
G01*
X4953000Y1143000D03*
G01*
X5207000Y1143000D03*
G01*
X5461000Y1143000D03*
G01*
X4953000Y2667000D03*
D16*
G01*
X381000Y381000D03*
D17*
G01*
X221005Y226009D03*
G01*
X381000Y156006D03*
G01*
X600989Y381000D03*
G01*
X540994Y226009D03*
G01*
X545998Y540994D03*
G01*
X161010Y381000D03*
G01*
X221005Y540994D03*
G01*
X381000Y605993D03*
D16*
G01*
X5461000Y381000D03*
D17*
G01*
X5301005Y226009D03*
G01*
X5461000Y156006D03*
G01*
X5680989Y381000D03*
G01*
X5620994Y226009D03*
G01*
X5625998Y540994D03*
G01*
X5241010Y381000D03*
G01*
X5301005Y540994D03*
G01*
X5461000Y605993D03*
D16*
G01*
X5461000Y3429000D03*
D17*
G01*
X5301005Y3274009D03*
G01*
X5461000Y3204006D03*
G01*
X5680989Y3429000D03*
G01*
X5620994Y3274009D03*
G01*
X5625998Y3588994D03*
G01*
X5241010Y3429000D03*
G01*
X5301005Y3588994D03*
G01*
X5461000Y3653993D03*
D16*
G01*
X381000Y3429000D03*
D17*
G01*
X221005Y3274009D03*
G01*
X381000Y3204006D03*
G01*
X600989Y3429000D03*
G01*
X540994Y3274009D03*
G01*
X545998Y3588994D03*
G01*
X161010Y3429000D03*
G01*
X221005Y3588994D03*
G01*
X381000Y3653993D03*
D18*
G01*
X1397000Y3429000D03*
D12*
G01*
X1651000Y3429000D03*
D18*
G01*
X2667000Y3429000D03*
D12*
G01*
X2921000Y3429000D03*
D19*
G01*
X2921000Y381000D03*
D12*
G01*
X3175000Y381000D03*
G01*
X3429000Y381000D03*
D20*
G01*
X1905000Y381000D03*
D12*
G01*
X1651000Y381000D03*
G01*
X1397000Y381000D03*
D21*
G01*
X1016000Y1905000D03*
G01*
X1016000Y1651000D03*
D22*
G01*
X1016000Y2159000D03*
D15*
G01*
X1524000Y2159000D03*
G01*
X1524000Y1905000D03*
G01*
X1524000Y1651000D03*
G01*
X2286000Y1968500D03*
M02*
